<mxfile host="app.diagrams.net" modified="2021-05-24T20:12:27.777Z" agent="5.0 (X11; Linux x86_64) AppleWebKit/537.36 (KHTML, like Gecko) Chrome/90.0.4430.212 Safari/537.36" etag="X_vqwAs1ATpex3kgC2VO" version="14.7.0" type="github">
  <diagram id="OwmT2zKCtGsq63xk4oYY" name="Page-1">
    <mxGraphModel dx="3115" dy="1188" grid="0" gridSize="10" guides="1" tooltips="1" connect="1" arrows="1" fold="1" page="1" pageScale="1" pageWidth="827" pageHeight="1169" math="0" shadow="0">
      <root>
        <mxCell id="0" />
        <mxCell id="1" parent="0" />
        <mxCell id="unjOA-P-tR-D2smZfHzm-8" value="" style="rounded=0;whiteSpace=wrap;html=1;dashed=1;strokeWidth=3;" parent="1" vertex="1">
          <mxGeometry x="-540" y="145" width="1892" height="587" as="geometry" />
        </mxCell>
        <mxCell id="unjOA-P-tR-D2smZfHzm-1" value="Image" style="rounded=0;whiteSpace=wrap;html=1;" parent="1" vertex="1">
          <mxGeometry x="-710" y="595" width="120" height="60" as="geometry" />
        </mxCell>
        <mxCell id="unjOA-P-tR-D2smZfHzm-3" style="edgeStyle=orthogonalEdgeStyle;rounded=0;orthogonalLoop=1;jettySize=auto;html=1;entryX=0.5;entryY=0;entryDx=0;entryDy=0;strokeWidth=3;" parent="1" source="unjOA-P-tR-D2smZfHzm-2" target="unjOA-P-tR-D2smZfHzm-1" edge="1">
          <mxGeometry relative="1" as="geometry" />
        </mxCell>
        <mxCell id="unjOA-P-tR-D2smZfHzm-2" value="Camera" style="ellipse;whiteSpace=wrap;html=1;" parent="1" vertex="1">
          <mxGeometry x="-710" y="465" width="120" height="80" as="geometry" />
        </mxCell>
        <mxCell id="unjOA-P-tR-D2smZfHzm-6" value="gray_img" style="rounded=0;whiteSpace=wrap;html=1;" parent="1" vertex="1">
          <mxGeometry x="-350" y="595" width="120" height="60" as="geometry" />
        </mxCell>
        <mxCell id="unjOA-P-tR-D2smZfHzm-5" style="edgeStyle=orthogonalEdgeStyle;rounded=0;orthogonalLoop=1;jettySize=auto;html=1;exitX=1;exitY=0.5;exitDx=0;exitDy=0;strokeWidth=3;" parent="1" source="unjOA-P-tR-D2smZfHzm-1" target="unjOA-P-tR-D2smZfHzm-6" edge="1">
          <mxGeometry relative="1" as="geometry" />
        </mxCell>
        <mxCell id="unjOA-P-tR-D2smZfHzm-7" value="" style="shape=image;verticalLabelPosition=bottom;labelBackgroundColor=#ffffff;verticalAlign=top;aspect=fixed;imageAspect=0;image=data:image/png,iVBORw0KGgoAAAANSUhEUgAAA38AAAKMCAYAAABbxgGMAAAABHNCSVQICAgIfAhkiAAAABl0RVh0U29mdHdhcmUAZ25vbWUtc2NyZWVuc2hvdO8Dvz4AACAASURBVHic7N15fFTV4f7xZ7LvC2FL2HcFZAcVK6iIGy7gUpUq1a/FBS3uv9pKq9Vqq1bEKhXQqhVwl0UUN1CsIqhJ2AlrJGHLvu+ZzP39McxkQmYmMyEhwP28X6/USe6595wJ6Zz73HPPuRbDMAwBAAAAAE5pAW3dAAAAAABA6yP8AQAAAIAJEP4AAAAAwAQIfwAAAABgAoQ/AAAAADABwh8A4JSUveoFpdxhUcodFhX8uKitmwMAQJsLausGAADgULx5hfJ/XKzyX35UbXGWAkLCFRybqIhuwxU94Hy1G3OjAkIimjxObXGWDq143O/6KzJTlb3qBZXuXCNrWa6Cotorut84dZxwnyJ7jWnGOwIA4MRB+AMAtLm6ymKlv3qDSrZ9objhVyvxslkKiu4ga0mWCn56RwU/LVbBT4sV2etMhXcZ3OTxDnz4kGxVJX61Ie+7Bcp4+24FhkWr04X3KzxpsKqy0pT11WwVJL+vbr+erY4XzGzuWwQAoM0R/gAAbcqwVmv3i5eoIjNVfe/5RLFnXNZge/tfTdfe+depaMNHPh2vbPd3KvhpsWIGXaqSbZ/5tE9J2iplLL5LlsBgDXhwjcK7DjmyZYrihk1W2tOjtf+9+xTaoY9iz5jkz9sDAOCEwZw/AECbOrzyaZX/sl6dLnq4UfCTJFks6jrlaXX79QsKjk30fjBbnTLfuVvBsUlKuvwvvjXAVqf9790rGTZ1GD/DJfjZhSUOPDLiZ2j/e/fJqLP6dlwAAE4whD8AQJupqyxR1pfPSbKo43l3eSwX2qm/Ok64T0FRCV6Pl/PNS6o8uEVdr31OAaFRPrWhZOc3qjq8XZKUcNZNbssknGn/eXXuHpVs/9Kn4wIAcKIh/AEA2kxhygcyaisV2rGfguO61G8wDPuXH6wl2Tr48WOK6jdO7cZM9Xm/oo3LJEkBIZGK6DrUbZmwxIEKjIg/Un6pX+0CAOBEwZw/AECbKd21RpIU1qmfbDUVylk9R/k/vaPq7J0ybDaFtOum2MGXqvPF/08hCT29Hmv/hw/LVl2u7je+7FcbKjJTJUmhHftKAYHuC1ksCu3QVxUZP6sic4NfxwcA4ERB+AMAtBlHkKqrKlXaUyNVV1mszhf/QeFdh6quskj5P7yp3G9fUf76hepz50eKGXiR2+OU7fleBT8uVMfzf6/wLmf41Yaq7F2SpODYJK/lQuK7qCLjZ2d5AABONoQ/AECbqS0+JEkq2/0/BUa008A/b1BIu+7O7XHDJitj0R3K+26B9s6/ToP+vFEh7Xs1PIitTplv362g6I5KuvIJv9tQV1ksSQoMjfRazvF8QVt1qWSr8zxKCADACYo5fwCANlNXVep83enC+xoEP4euVz8jS1CYbFUlOvzZ042253zzsioPblbXq/+hwIg4v+o36molm331TktQiNeylqBQ52tbbaVf9QAAcCIg/AEA2o5hc76MHXyp2yKBEXGK6vsrSVLRxuUNtllLsnVoxWOK7HWWEs6+xe/qLYHBUoD9JhjDWuO9qdZq5+uA4HC/6wIAoK0R/gAAbcb1cQyh7Xt7LBfWqZ8kyVqWK2tprvPnBz76f6qrKrUv8mKxNKsNgeGxkqS66nKv5Ww1FfVt5pZPAMBJiPAHAGgzIS6Pd3C9rfJoASH18/Ect4qW7/1B+esXKn7EtQqO66La4qwGX3Xl+fX7VBY7f24tyW5w7LBO/SXVzz/0pKboUIPyAACcbFjwBQDQZsK7DlVVVpokqa6qRAEeFl2xVZc5XwcdmddXtvcHSYYKU95XYcr7XuvJfOceZb5zj/0bS6BGzrM6t0V0H6Hy9HWqzt1rvw3V4ua6qGGoOme3szwAACcjwh8AoM3EDr5EhcnvSpKqDm9XcGyi23JV2TslSSHteigwsp0kKX7ktQrvMtjjsavzM5S5+E5JUqeLHlbMaRfYNxwV7uKGTVbumrmyVZep8sBmhXcb1rj+rDTVVRQ6ywMAcDIi/AEA2kz88Ku1//0HVFdRoMINSxV92oRGZaxleSrbs1aS1G7MVOfPQxJ6en3we+XBrc7XEV2HKGbQJW7LxQw4X2GdT1dVVpryf1ykrm7CX/6PiyVJoR36enzWIAAAJzrm/AEA2kxAWLS6XvOMJCnv+9dUkZnaqMyBDx6UUVejkHY91Pnih1uhEYHqdv2LkiVAOd/MbRAaJakqa6dyVr8oyaJu18+xrxAKAMBJKPDxxx9/vK0bAQAwr4juIyTDUOnOb1Tw09syaqtkq6lQxb6ftf+DB1W0calCO/RRv5krFRLfzeuxrGV5KtqwRJUHN6siI1mlO1ZLkoJjOquuolCVBzcrICRcQZEJDfYL7dBHIbGJKtr8iQp+ekeSobqKIhVvWq6Mt36nuqpSdbv+BSWcdXNr/RoAAGh1FsMwjLZuBAAA5Xt/UM43L6t093eylmYrICRCYYmDFD/ianUYd6fHxWAaHCN9vXY8c7bXMt2nvqIO4+90u60iM1XZX81W6a41spbmKiiqvaL6jVOnC+9XZK8xzXpfAACcKAh/AAAAAGACzPkDAAAAABMg/AEAAACACRD+AAAAAMAECH8AAAAAYAKEPwAAAAAwAcIfAAAAAJgA4Q8AAAAATIDwBwAAAAAmQPgDAAAAABMg/AEAAACACRD+cPzVlEopC6T8nW3dEgAAgFNT/k4pZb79vAs4gvCH48cR+t6+QjqULCUMaOsWAQAAnJoSBkiHUuznXSkLCIGQJFkMwzDauhE4xdWUSlvekba8LdWU2X92+TwpaVTbtgsAAOBUdihZ+uRO++uQKOmMqdIZN0oh0W3bLrQZwh9aj7vQJ0mJI6QrFrRduwAAAMxixe3S4dT67wmBpkb4Q8vzFPocGPUDAAA4PlxH/1wRAk2J8IeW01Tokxj1AwAAON6OHv1zRQg0FcIfjp0voc+BUT8AAIDjy9PonytCoCkQ/tB8/oQ+SYrqLA24ovXbBQAAgIZ2rpDKspouRwg8pRH+4D9/Q5+DYUgWS+u1CwAAAO75ex5GCDwlEf7gn9JD9vvGvV05MgzJIh35H5efEfwAAADajqEG52cyjvzIyzlaVGf7eg3RSa3cNhwPhD/4r6bUPuq35R1G/gAAAE4GzRr5u9E++sfI3ymD8Ifm8zcERiVKAy5v/XYBAACgIb/m/BH6TlWEPxw7f0Igq30CAAAcXz6v9knoO9UR/tByfAmBiSOlK+Yf33YBAACYWZPP+SP0mQXhDy2vqRDI6B8AAMDx4WnUj9BnSoQ/tB5PIZDRPwAAgOPj6FE/Qp+pEf7Q+tyFQEb/AAAAWpfrqB+hDyL84XhyDYEJAxj9AwAAaE0rbpfydxH64ET4w/HnCIE9z7OHQAAAALSs/J3SvjWEPjRA+AMAAAAAEwho6wYAAAAAAFof4Q8AAAAATIDwBwAAAAAmQPgDAAAAABMg/AEAAACACRD+AAAAAMAECH8AAAAAYAKEPwAAAAAwAcIfAAAAAJgA4c9P/931X83ZMqetm+G39/a+p+c3P69aW21bNwUAAAAnibVZa3X393cft/rKasvUdVFXWRZY1Pfdvset3tYy7Ztp2lKwpa2b4UT481G5tVzXfHmNZnw/QwPiBngsl5qXqpu/uVndFndT2Gth6rqoq6aunqqfcn5qsbY0p44BcQP0j43/0Pkrzld2ZXaLtQUAAACnpqc3PK1xH49Tx/COXstlVWTpryl/1eglo9X+v+0V9lqYui/urnEfj9Osn2cpOTfZ5zqfSH1CBysO+tXOGluNXtjygkYvGa3YN2IV80aMRnw0Qs9uelZVdVV+Haul6wgNDNXoJaP1nx3/aZF2HCuLYRhGWzfiRGe1WTXp80n65tA3+vyyz3VB0gVuyy1IW6C7v79b0cHRun/I/RrcbrDSCtM0e/NsFdUUafbZszVz8Mxjasux1LGtcJvOWX6Oukd11/dXfq+YkJhjagsAAABOTU+kPKHHUh7TE6Oe0J9H/Nljuff2vqc7vrtDcSFxumXALRocP1iGDKXmpWre9nkqqinSNb2u0YcTP2yyzrSiNA39cKjzTrU+MX2054Y9XvfJr8rXxE8nakP+Bl3U9SJN6zdNAZYALdq9SCv3r9Tg+MFadfkqdQrv5N8voAXruP1/t+vVHa/q9fGv69YBtza7HS3CQJNm/TTL0HwZf/75zx7LfHXgKyNgfoAR+mqosSl/U4Nt2wq2GRH/iTAs8y3GJxmfNLsdLVHHGzveMDRfxo2rbmx2OwAAAHDqWnVglaH5MsYtH+e13EfpHxmBCwKNiz69yCivLW+0fUPeBiNgfoBxzZfX+FTvhBUTjJjXY4xzlp1jaL6MPu/08VreZtiM8R+PNzRfxtTVUw2bYWuw/ZZvbjE0X8ZZS88y6mx1PrWhNeqoslYZ/d/tbwS/GmxsLdjarHa0FG77bEJ6Sbqe3fSsooOj9fDQh92WqTPqdO/ae2WTTTMGzdCQdkMabB8YP1AzB8+UIUP3/XCfrDar3+1oqTp+O+C36hvTV+/sfUffHv7W73YAAADg1GUzbJrx/QxJ0hOjn/BYLq8qT7f/73ZFBUdp8QWLFREU0ajMsIRheuO8N3wa7Xp/7/tafWi1Hhv5mDpHdPapre/ueVffHv5WIQEhmjN2jiyyNNg+++zZCg8M1/qc9Xpr11s+HbM16ggNDNWsEbNUa6vVPd/f06x2tBTCXxNe3vayamw1mtxzsqKDo92W+ebQN9petF2SdFO/m9yWcfx8T8kefXngS7/b0VJ1WGTRzf1uliQ9v+l5v9sBAACAU9cnmZ9oV/EudY/qrvGJ4z2Wm7NljvKr83V9n+vVPqy9x3LT+k/TpO6TvNZZbi3Xg+sf1MC4gX5NkZq7ba4k6eKuF6tDWIdG2+ND4511/3v7v30+bmvUcV3v6xQeGK41h9coNS+1WW1pCYQ/LwwZWrx7sSRpQpcJHsst27dMkhQZFKmhCUPdlhkYP1DxIfGSpKX7lvrdlpasw/FePs38VAXVBX63BQAAAKemRbsXSZLHNS4k+znywt0LJUnnJZ7XYJvNsPld5xMpT+hA+QG99KuXFBQQ5NM+uVW5+iH7B0nSOZ3P8VjOse3n3J91sNy/hWRaso6wwDBnOcfvri0Q/rzYlL9JOVU5kqQz2p3hsVxqrj29943pq0BLoNsyFlnUN9a+XO2GvA1+t6Ul6xiSYL9l1CabVh1Y5XdbAAAAcOqxGTatPrhakvdz3/SSdGWWZUqS+sX20/qc9brmy2uU8N8EBb4aqOjXo3X+ivO1cPfCJsPgjqIdemHLC7qu93VeA+fRNuRtkCH7upXeVuLvH9u/fp98/87BW7oOx7StL/Z/4Vc7WhLhz4uU3BTn617RvTyW21W8S5KUFJnk9XhdIrs0KO+PlqwjOjjaOWydkpfisRwAAADM45fSX5x3hfWK8Xzu6zrIsCBtgcYuG6uggCC9Pv51fXP5N3p81OPaWrhV076ZpslfTFZ1XbXHY/1+7e8VHBCs58/ybzqS67luUoTn82PHubEk7Sry7xy8pevoE9NHkj3wVlgr/GpLSyH8ebG7eLckKTggWPGh8R7LFdcUS7LfkumNYyJsaW2p6ow6v9rS0nU4ntfieI8AAAAwN9fzwo5hnp/td6jikPP1qzte1QNDHtB7F76nq3pepfOSztODQx7U2qvWKiooSisyV+ih9Q+5Pc4H6R9o1cFVmjV8lrpFdfOrrY5zY0mKDPZ8fuy6EE1RTVGb1uE4/zZkaE+J90dYtBbCnxeOWz49LfQiSbW2WlkN+8qaIYEhXo8XGhjqfF1prfS5Ha1Rh+M98cB3AAAASFJOZY7ztbfnQZfUlDhfRwdH64lRjVcF7R/bX3cPuluSNG/7PGWUZTTYXm4t14PrHlS/mH56cOiDfrfVdeQsJMDz+bHrubG/o20tXUd0SH2myK5om3Nwwp8XZbVlkrz/YwcHBCvIYp+YWlNX4/V4rkPe4UHhPrejNepw/JE63iMAAADMzfW80Nv5r+s8vnGJ49w+5kGSruhxhSTJalj1ScYnDbY9mfKk9pfv14vnvOi1Lk/CA+vPc2tsns+PXc+NPbXzeNURGlAfEsusbXMOTvjzwjDsEzwtFovXcrEhsZLsVzC8cVwJiAqK8rhoy/Gqw/GMEsckVgAAAJib63mht/Nf1xGs3tG9PZbrF9vP+Xp74Xbn651FO/XClhd0ZY8rdWm3S5vV1rjQOOfr8lrP58euI3GO8+m2qsP1d+rIGcebb2upmpTj3t6mRtv6x/bXupx1OlR+yGs5x/b+cf29ljsedTiuUDQ1hxAAAADm4Hpe6O38t0tE/QInrrc8Njqeyzy50tpS5+uZP8yUzbDpkWGPKKsiq9F+jvPUOltdg+3RIdHONrqusOk6B/Forttc9/FFS9fhOkLobQ5hayL8eZEQmiCp6dG2ER1GaF3OOu0t2SubYVOApfGAqiHDOYl2RPsRfrelpetwvCdvD+UEAACAeSSEJThfe7st0fWZ0yW1JR7Lud5GGhdSP4q2NmutrIZVY5eP9dqefWX7lLgo0fn9k6Oe1KwRsyRJwxKGySKLDBleV7l3XX1zePvhXus7WkvX4Zop2uocnPDnheOZeVV1VSqpKfE48XVyz8mau22uyqxl2lywWcMShjUqk1aYpsKaQmd5f7V0HY6FXhzvEQAAAObmel7ouvjL0QbEDVDv6N5KL01vcDvn0XYW7XS+dh2YWHbxMlltVo/7PbXhKX2f9b0SIxL1+vjXnT93HVXrGN5RYzuN1drstfoh6wdpqLsjSWuz10qSRrUfpa6RXT3W6U5L1+G6yEvfmLY5Byf8eeEasDLKMjw+7PL8pPN1etzpSitK06Ldi9wGs8V7Fkuy/0Nf1PUiv9vSknVUWiuVW5krSW6PAwAAAPPpG9NXkUGRKreWK6M0w2vZ2067TY/+/KjWZ69XVkWWOkd0blRm+b7lkuxrUTgWf5GkC7tc6PXYr+14TZJ98ZRLul3isdyMQTO0NnutPt//ufKq8hqNphXVFOnTzE8lybnyqL9asg7Hiqc9o3r6Pf+wpbDgixejO4xWTLB9tG9b4TaP5QItgXpx7IsKUIDmbpurrQVbG2zfWbRTL255URZZNGfsHAUHBDc6Rp1RJ8sCiywLLHp528utUofD9qLtssm+StPErhM9/wIAAABgGsEBwRqfOF6S93NfSXpgyAPqG9NXVsOqe3+4t9EiglsLtuqV7a9Ikp4Y/USDW0pbyo19b9T4xPGqtlXrgXUPNNr+8PqHVWGt0Fkdz9K0/tPcHmP1wdXOc/Cjz69bqg4Hx/Hb8vybkT8vggKCdE3va/TGzje05tAa3dDnBo9lJ3adqFfOfUV3f3+3xq8Yr4eHPqzB7QYrrTBNz216TlV1VZozdo4mdZ/kdn/HSJzUcGWklqzD4euDX0uSzu18rpIikpr4LQAAAMAsru9zvVbuX6k1h9Z4LRcWGKYvLvtCEz+dqPfT31fOihzddtptig+NV0puimZvma3Kukr9afifdP8Z9zdZ79eHvnYuXJhZlinJPmdw0e5FkuyPMLum1zUN9rHIoo8mfqSJn07Uwt0LlV+Vr9/2/60sFosW716s5RnLNTh+sJZdvMztehmSlFuV6zxWn5g+jba3RB2SZLVZ9V3Wd5KkG/p6zhStzWK01TqjJ4lN+Zs0/KPhah/WXvt/s9/rikaSlJqXqtmbZ2vNoTXKrcpV+7D2Gpc4Tvefcb/GdBzjcb/P9n+myz67TFFBUTp400GvD9Zsbh0Owz8aro35G7XkoiWa0nNKk+UBAABgDtV11er5dk9lVWYp9erUJhdJqbBW6F9b/6WP0j/S7pLdqrRWKjEiUeMSx+n3g3+v0R1G+1TvJSsv0RcHvvC4vVN4J2Xd3HhlUMn+DL6Xt76st/e8rV3Fu2QYhvrF9tMNfW/QzMEzFRYY5vG4f/jxD3p207Ma13mcvr3yW4/ljqUOyX4L7OQvJ2tIuyHadO0mr2VbE+HPB7f/73a9uuNVvTj2Rc0cPLNV6vj1ql/rg/QPNGPgDM391dxWqUOSVmSs0JVfXKkJSRO06vJVrVYPAAAATk5v73lbv/n6N5rSc4qWXLSkrZvTaqrqqjTgvQHKLMvU+xe+r+t6X9cq9dgMm85adpaSc5P17ZXf6tzO57ZKPb5gzp8Pnj/7eQ1LGKZHf3pUmws2t/jxP0j/QB+kf6ABsQP09zF/b/HjOxwsP6i7vrtLXSO76s3z32y1egAAAHDymtp3qm4bcJuW7luqN3a+0dbNaTUPrX9ImWWZurHPja0W/CTpydQn9XPuz3ps5GNtGvwkRv58llWRpau+uEr7Svfp40s+1pkdz2yx4/Z5t496R/fW8ouXq3dM7xY57tH2luzVpSsvlSFDKy5ZodPiTmuVegAAAHDys9qsuuO7O/TWrrf071/9W9NPn97WTWpRH2d8rKu+uErX9LpGb53/liKCIlqlnidTn9RjyY/pj8P/qKdGP9UqdfiD8OeH6rpq/S31b7JYLHpi1BMtdtx12es0NGFoq/3RSfYlc5Nzk/WPM//R4CGbAAAAgCeLdi/Sh+kfatnFy9q6KS1u9cHVmtBlQqvWMf7j8frDsD/osu6XtWo9viL8NYPNsHldzedEdDK2GQAAAG2P88jmO9F+d4Q/AAAAADCBEyeGAgAAAABaDeEPAAAAAEyA8AcAAAAAJkD4AwAAAAATIPwBAAAAgAkQ/gAAAADABAh/AAAAAGAChD8AAAAAMAHCHwAAAACYAOEPAAAAAEyA8AcAAAAAJhDU1g3Aic9isbR1EwAAAHCCMAyjrZuAZmLkDwAAAABMgPAHAAAAACZA+DtWpYfaugUAAAAA0CTC37GoKZVW3GH/LwAAAACcwAh/x2LL21LZYft/AQAAAOAERvhrrppSacs79tdb3mH0DwAAAMAJjUc9NNeWt6WaMvvrmjL79yPvaNs2tQGW+gUAADj18KivUxMjf83hOurnwOgfAAAAgBMY4a85XEf9HByjfwAAAABwAiL8+cvdqJ8Do38AAAAATlCEP3+5G/VzYPQPAAAAwAmK8OcPt6N+Ry14wugfAAAAgBMQ4c8f7kb9jl7sktE/AAAAACcgwp+vPM31c7cMLqN/AAAAAE4whD9feZvrdzRG/wAAAACcYAh/vvC2wqcnjP4BAAAAOIEQ/nzhddTv6El/RzD6BwAAAOAEQvhriqdRv6jOkmFIstj/G9W5cRlG/wAAAACcIAh/TTl61C9xhHT5PGnAFfWLvVgs9u8vn2ff7sDoHwAAAIATRFBbN+CE5jrqlzhCGnm7lDTK/v3hlMblk0bZvw4lSykLpMOp9v3PmCqFRB+/dgMAAADAUQh/3mx5W0ro3zD0+eLoELjlbWnkHa3XTgAAAABoAuHPm57nHVtoc4TA/J0t1iQAAAAAaA7m/HmTMODEOg4AAAAANBPhDwAAAABMgPAHAAAAACZA+AMAAAAAEyD8AQAAAIAJEP4AAAAAwAQIfwAAAABgAoQ/AAAAADABwh8AAAAAmADhDwAAAABMgPAHAAAAACZA+AMAAAAAEyD8AQAAAIAJEP4AAAAAwAQIfwAAAABgAoQ/AAAAADABwh8AAAAAmADhDwAAAABMgPAHAAAAACZA+AMAAAAAEyD8AQAAAIAJEP4AAAAAwAQIfwAAAABgAoQ/AAAAADABwh8AAAAAmADhDwAAAABMgPAHAAAAACZA+AMAAAAAEyD8AQAAAIAJEP4AAAAAwAQIfwAAAABgAoQ/AAAAADABwh8AAAAAmADhDwAAAABMgPAHAAAAACZA+AMAAAAAEyD8AQAAAIAJEP4AAAAAwAQIfwAAAABgAoQ/AAAAADABwh8AAAAAmADhDwAAAABMgPAHAAAAACZA+AMAAAAAEyD8AQAAAIAJEP4AAAAAwAQIfwAAAABgAoQ/AAAAADABwh8AAAAAmADhDwAAAABMgPAHAAAAACZA+AMAAAAAEyD8AQAAAIAJEP4AAAAAwAQIfwAAAABgAoQ/AAAAADABwh8AAAAAmADhDwAAAABMgPAHAAAAACZA+AMAAAAAEyD8AQAAAIAJEP4AAAAAwAQIfwAAAABgAoQ/AAAAADABwh8AAAAAmADhDwAAAABMgPAHAAAAACZA+AMAAAAAEyD8AQAAAIAJEP4AAAAAwAQIfwAAAABgAoQ/AAAAADABwh8AAAAAmADhDwAAAABMgPAHAAAAACZA+AMAAAAAEyD8AQAAAIAJEP4AAAAAwAQIfwAAAABgAoQ/AAAAADABwh8AAAAAmADhDwAAAABMgPAHAAAAACZA+AMAAAAAEyD8AQAAAIAJEP4AAAAAwAQIfwAAAABgAoQ/AAAAADABwh8AAAAAmADhDwAAAABMgPAHAAAAACZA+AMAAAAAEyD8AQAAAIAJEP4AAAAAwAQIfwAAAABgAoQ/AAAAADABwh8AAAAAmADhDwAAAABMgPAHAAAAACZA+AMAAAAAEyD8AQAAAIAJEP4AAAAAwAQIfwAAAABgAoQ/AAAAADABwh8AAAAAmADhDwAAAABMgPAHAAAAACZA+AMAAAAAEyD8AQAAAIAJEP4AAAAAwAQIfwAAAABgAoQ/AAAAADABwh8AAAAAmADhDwAAAABMgPAHAAAAACZA+AMAAAAAEyD8AQAAAIAJEP4AAAAAwAQIfwAAAABgAoQ/AAAAADABwh8AAAAAmADhDwAAAABMgPAHAAAAACZA+AMAAAAAEyD8AQAAAIAJEP4AAAAAwAQIfwAAAABgAoQ/AAAAADABwh8AAAAAmADhDwAAAABMgPAHAAAAACZA+AMAAAAAEyD8AQAAAIAJEP4AAAAAwAQIfwAAAABgAoQ/AAAAADABwh8AAAAAmADhDwAAAABMgPAHAAAAACZA+AMAAAAAEyD8AQAAAIAJEP4AAAAAwAQIfwAAAABgAoQ/AAAARG8L/AAAIABJREFUADABwh8AAAAAmADhDwAAAABMgPAHAAAAACZA+AMAAAAAEyD8AQAAAIAJEP4AAAAAwAQIfwAAAABgAoQ/AAAAADABwh8AAAAAmADhDwAAAABMgPAHAAAAACZA+AMAAAAAEyD8AQAAAIAJEP4AAAAAwAQIfwAAAABgAoQ/AAAAADABwh8AAAAAmADhDwAAAABMgPAHAAAAACZA+AMAAAAAEyD8AQAAAIAJEP4AAAAAwAQIfwAAAABgAoQ/AAAAADABwh8AAAAAmADhDwAAAABMgPAHAAAAACZA+AMAAAAAEyD8AQAAAIAJEP4AAAAAwAQIfwAAAABgAoQ/AAAAADABwh8AAAAAmADhDwAAAABMgPAHAAAAACZA+AMAAAAAEyD8AQAAAIAJEP4AAAAAwAQIfwAAAABgAoQ/AAAAADABwh8AAAAAmADhDwAAAABMgPAHAAAAACZA+AMAAAAAEyD8AQAAAIAJEP4AAAAAwAQIfwAAAABgAoQ/AAAAADABwh8AAAAAmADhDwAAAABMgPAHAAAAACZA+AMAAAAAEyD8AQAAAIAJEP4AAAAAwAQIfwAAAABgAoQ/AAAAADCBoObsZKsu09a/nKbaooMK7dBHg/+2p6XbBQAAAABoQc0Kf4c+eUK1RQf92qd05xrlfbdAZenrVFucJclQcGyiovqMVYdxdyqq37lNHqMiM1XZq15Q6c41spblKiiqvaL7jVPHCfcpsteY5rwVAAAAADAFv8Nf1eE05aye49c++9+7Vzlf/0uyBKj9Of+nqH7jZLEEqHT3d8r7/jUV/PS2Ol30sLpe86zHY+R9t0AZb9+twLBodbrwfoUnDVZVVpqyvpqtguT31e3Xs9Xxgpn+vh0AAAAAMAW/w1/mu7+XJThcET3HqHzv2ibL5697yx78JPW69b9qd+ZNzm3tzvyNYk6/UOkLrlP2l88povsItRt9Q6NjlKStUsbiu2QJDNaAB9covOuQI1umKG7YZKU9PVr737tPoR36KPaMSf6+JQAAAAA45fm14Eth8vsq3bFaSZc/puCYzj7tk//DG5KkkIReDYKfQ/zIaxXW+TRJ9tG9Rmx12v/evZJhU4fxM1yCn11Y4sAjI36G9r93n4w6qz9vCQAAAABMwefwZ6su1/4PHnQJW76pzs+QJIV17OuxTGjHfpKkquxdjbaV7PxGVYe3S5ISzmocHiUp4UiorM7do5LtX/rcNgAAAAAwC5/Dn32RlwPqfsNLsgT6frdocKx9hLCm+LDHMrVFhyRJgWHRjbYVbVxmb2hIpCK6DnW7f1jiQAVGxB8pv9TntgEAAACAWfgU/qqydihn9QuKH3mdok+7wK8K2o+91X6Mw9tVse/nRtsrD2xSxf6NkqTYIVc02l6RmSpJCu3YVwoIdF+JxaLQDn2PlN/gV/sAAAAAwAx8Cn+Z7/xelsBgdb32eb8raH/udCVd+aQsAYHaPfdK5a/7r2ry96kmP0MFPy7W7pcmSUadovr+SkmT/txof8etoMGxSV7rCYnv0qA8AAAAAKBek/dvFqZ8oNIdq9Rl8tMKadetWZUkTpql+BFXa/8HD2nfm7c02BbVb5wSL5ulDudOdzuyV1dZLEkKDI30WkdASIQkyVZdKtnqPI8SAgAAAIAJeQ1/jkVeQjv2U6eJDzavBsNQ1uf/0OHPnpYlMFiJlz+mqN5nSxaLytPXK2/df1WS9pWi+v5K4V0GN9y1rlay2VfvtASFeK3GEhRa3+7aSgWERjWvvQAAAABwCvIa/g5/+qRqC/er7+9XNhm+PDnw4UPKXjVblqAwnf6nZIV1HuDcFjPwIrU78zdKe3q00rZ8qp63vNngOX+WwGApIEiyWWVYa7zWY1irna8DgsOb1VYAAAAAOFV5nPNXlbVT2ateUOyQKxU7+NJmHbw6Z4+yV8+RJHU8/54Gwc8htEMfdbrwARnWamW8dZusJdkNtgeGx0qS6qrLvdZlq6mQJPuIH7d8AgAAAEADHsPf/vdmyjBsSrz0EdUWZzX6coy0Gba6Bj+3uYS0ku1fSoZNkhTV71yPjYg5soKoraZCRZuWN9gW1qm/JKm2+JDXN1Jz5HERjvIAAAAAgHoeb/ss27NWslm145mxXg9Qk79Pm/9fovP7pCufVOKkWZIka1me8+chcZ5X6wyMbOd87XgovENE9xEqT1+n6ty99iBpcZNXDUPVObud5QEAAAAADXkMf31mLHMutuLO4ZVPqWzP9wqOTVTP377u/Hlox/qRN9dQV1N4QBE9Rrk9lmtIDAyLabAtbthk5a6ZK1t1mSoPbFZ4t2GN9q/KSlNdRaGzPAAAAACgIY/hL+b0C73umPvda5Lsj1iIGXSJ2zLR/cY5X5fuXOMxmJWkrXK+jurTcKQxZsD5Cut8uqqy0pT/4yJ1dRP+8n9cLEkK7dBXMQMv8tpuAAAAADAjnx7y3lzhXYcodvBlkqTc/81T1aFtjcpUZe1UzpFFYSJ7j1VU318d1cJAdbv+RckSoJxv5qry4FY3+78oyaJu18+xrxAKAAAAAGigyYe8uyrd8bVz4ZWagkxJUl1VmQp+XCRJsgSHK37ENQ326XXbIu1++QqV712rtGfGquN5MxTZ+2xZLBaVpa9X7pq5qqssVnjXYepz50eSxdKo3piBE9XjN68o4+27tfOf49X54ocVnjRYVVlpyvriOdlqq9Tt+jmKPWNSs34JAAAAAHCqsxiGYfhaePeLl6hk+xcetwdFd9LQf2Y13mDYVJD8vgp/flflGSmyluVKhqGgqPaK6DZM8SOvU7szb5Il0HsWrchMVfZXs1W6a42spbkKimqvqH7j1OnC+xXZa4yvb6NlpMyXUl6t/37kdGnkHce3DceJ5Ugg9/kPBQAAAKccxxCNH/EBJxi/wh9cEP4AAABgIoS/k1+rzvkDAAAAAJwY/JrzBzhxxQcAAODU52Y9Dpy8GPkDAAAAABMg/AEAAACACRD+AAAAAMAECH8AAAAAYAKEPwAAAAAwAcIfAAAAAJgA4Q8AAAAATIDwhxaXkVGjqVN/UXm57bjVed99+2WxpDT4slpPrWcRLltW1Og9rlpV0tbNOmbTpv2iLVsq27oZAE5RbdEnNddrr+U1+pzfs6e6Wcc6Hv0ife/Ji77XvAh/aFGffVasYcO2Ky/PqrAw939eNTWGXnghW6NHpyk2doNiYjZoxIjtevbZLFVVNa/TuPnmBC1c2EszZ3Y8luYfsxUritWu3UZdffVeGS3c/40aFamFC3vplVe6t+yB/fDSSzmyWFI0fXqG82dWq6GPPy7Srbfu0+mnb1NU1AaFhqaqW7fNmjJlrz76qNDr7yI0NECjR6fpP//JOw7vAICZ+NIntbRffqlR375bNWjQNmVl1fq17/nnR2vhwl566qkux9yO49Ev0vceH9dcs1cWS4oWLy5w/qyoqE6vvZanKVP2qnv3zQoNTVVU1AYNGLBVt922Tz//XOH1mPS95kX4Q4tZvbpUV121V2eeGamVK/sqMLBxmfx8q846K00PPHBA7doF6d//7qH583soMTFEf/jDQY0evV3Z2Va/6x45MkI33dRO554b1QLvpPneeitfhYV1Wrq0SIcO+dfpN6Vr12DddFM7XXtt/DEfa/Jke0dyww3pfu23bFnRkf3jJEkpKRXq02errrpqr5YsKdSVV8Zq3rweevfd3po6tZ2+/rpE116brosv3q2yMvdX3V99tYemTUvQ736XoTfeyD+2NwYAR/jSJ7WGlSuLtXdvtbZvr9Lq1aV+7dunT6huuqmdLrss1mu5jRsrnaNQO3ZUuS1zPPpF+l7/NKfvraoy9MUXJQoOtmjSJPvfxRtv5Kt7982aPj1DW7ZUasaMjlq8uJcWLOihMWMi9eab+TrzzDQ98shBj8el7zWvoLZuAE4NublW/frXexUdHaCFC3spKMjSqIxh2K9ebdhQqalT22nRol6yHCl2443tdOut+/Tmm/maPHmP1q49TQEn4aWJu+/uoK1bKzVuXJS6dAlu6+a0qMLCOv3vf6WKigrQhRfGSJJ2765SZmaNOnYMUmrqwAbvecqUON18c4JGjUrTV1+VaNq0X7RkSR+3x37ppe769ttS3XFHhsaMidSgQWHH5T0BODX50ie1lilT4rR4cb5CQiy69FLvIQ4t41Tue7/6qkTl5TZdeGG04uLsVzB+/LFMpaU2nX9+tD7/vJ9CQur/vqdObadx46J1++0ZeuaZLCUlBXscmaXvNaeT8PQaJ6I//emgCgrqNHNmJ3Xo4P6awrvvFujbb8sUEmLRnDndnMHPYfbsbgoPt2j9+nK99dbJeRXqvPOilZY2SPPn92jrprS4Tz4pktUqXXJJrEJDG/7jPf54ktsOd/DgcN1zj73TWbq0SNu2ub9CHRpq0axZiaqtNXTPPZkt33gApuJLn9RakpKC9cMPp2nNmgFq1+44DTea3Knc9y5bVihJmjy58cjj3LndGwQ/h+nT22vUqAhJ0lNPHZbNw3RX+l5zIvzhmOXmWrVwoT2s3XxzO4/l5s7NkSRdfHGM2844Pj5QkybZbyf8979zWqGlOBZH3/IpSfHxQRo6NFwTJ8Z43G/s2PrbgX74ocxjueuua6fwcIvWrClVaqr3uQoA4ImvfRJworPZ7PMZLRbpqqvq+95u3UI0fnyUTj/d80jd2Wfb+96cHKv27vW8aBB9r/kQ/nDMPvigUNXVhnr2DFHv3qFuy+TmWvXDD+WSpHPO8Tw3wLHt558rdPDgsd+3n5ZWpeuuS1fHjpsUHp6qoUO3a9683Cb3y8qq1cMPH9DAgdsUGblB0dEbNGjQNj3wwH4dONC4Xf6sBmYY9hXdzjwzTVFR9gVvhg/frn/8I0s1NYZzToDjq2fPLV7bWlhYp/vv368ePbYoNDRVvXpt0cMPH3C7st155+2UxZKi5cvtQe699wobtdvd3Dx3cw4ke5DfuHGg+vZ1/+8uqUHQr631PBM/LMzi/Pd3nLgBgL+a6pMGD97W6HPPYknR5583/My+9177SpZHL4ixfn15o31vuCFdRUV1jX4+a5bnOVfp6dW69dZ96tJls8LCUp1zuDIzazzus2ZNqSyWFA0fvt35s9NPb/h+HnrogNffT3P7RX/Q9zbU3L537doy5eZaNWpUhLp2rb+75tFHE7VmzQCv7aPvhSfM+cMx+/JL+wftGWeEeyyzYUOFcwWuAQM8X6nq37++o96woUJdujR/vsSGDZWaOHGXOnQIUp8+oUpLq9LmzZW6665M5edb9eijiW73W726VFdfvUdlZTb97nft9fe/x8pqNfTZZyV68cUcvfpqnj78sI8uvrh+tMuxGlhZWZ3uusvzrRO1tYauvz5dS5cWKSDAPoo2ZEiEcnNr9eKL2fr002JFRdmvyYwdG6m77uro/N6dkhKbxo3boZwcq/r1C5XVamjfvhr985/Z2rSpUl9+2a9B+UcfTdTvfmfVnDnZSkmp0FlnReruuxvOBQgLa3wLyZdfFqu83KaJE2Occw58tX9//YnMkCGe/0bs2yO0alWpvvji5F9GG0DbaKpP+sc/uio1tUKPPXZIkvS3vyWpR49QDR3asLzjboelS4t0223tnT/v2zdUCxf20vffl2r+/DzNm9ddgwaFKzLSPr9Qkv74xwNuw4rDt9+WadKk3Sovt6lXrxDdfbf9s/7HH8s1alSaXn7Z/cqSp58eroULeykzs0aPPmoPls8+21WJifXBYOBAz31sc/tFf9D3tlzfu3Sp51s+m+Loe8PDLerXz/MFWom+13QMNE/yPMOYP7L+K3leW7eo1UgyZL9oVv/lomvXTYaUbMycmenxGC+9lG1IyYaUbPz4Y5nHchs3VjjLPf98lt9t/eCDAuf+o0ZtN95/v8C5rby8zrjsst2GlGxERKQapaV1jfbfvr3SiIxMNaRk45VXchptnzcvx5CSjaioVGPv3qpG23Nza531f/VVcaPtf/7zQUNKNoKCko3PPmu4vbDQagwfvs2wWOz7/+Y36W7fo2sdQ4duMx56aL9RW2tzbn/88UPO7V9/XeL2GFddtceQko3rr9/rdvvRbr31F0NKNubObfw7acpvf2vfd+DArYbN5r3s3Ln236/FkmyUlzf+9wGApvjSJ9XU2Iy4uA2GlGz885+N+5qffip3fo6GhqYYJSWNP4+mTfvFGD58m9vjDxq01ZCSjUcfPdBoW3Z2rZGQYK/7wgt3GhUVDY/93//mGR07bnTWv3t3475mw4b6vjItrdLj+zSMY+8XfUHf2zp9b+/emw0p2di2zfu/8dFsNsPo1cu+7113ZTRZvsm+1+X8z3lOiJMWt33imFRW2py3Z3bs6Hkgubi4zvk6MtLzyFFERP2fZFFRncdyvjjnnChdd1391bKIiAA9/bT92UkVFTatW9d4/tmDD+5XeblNgwaF6c47OzTafscdHTRgQKjKymx66qnDfrUnP9+q557LkiTddFOCLrmk4Ty5uLhAzZvXw69nFAUE2K/6uq5kN2tWohIS7L/jlngQrc0mffJJ4zkHvigoqNOHH9qvXP79710aLfJzNMffkGGo2Q82BmBevvZJwcEWXX65/c4Sx+iKq6VLC9W+fZAsFqm62tBnnxU32G61GvrkkyJNmeL/iMxzz2UpP79OAQHSggU9FR7e8FRs2rQEjRwZ4fdxfdGcfvF41EHf29jmzZVKT69Rv36hXkdz3fnyyxL98kuNYmMD9cc/dm6yPH2vuRD+cExyc63OD8yYGM+hrqKi/l52dytTObiuIum6T3PccEPjif6DB4cr6Mj5QEZGw3kVhw/X6rPP7B/Y3jr0iy6ynzC8/36h6vzIp8uXFzkfYu/peUFjxkSqWzffl6n+9a/bNQpUgYHSGWfYTxyOfo/N8f339XMO/F1C29Gh33FHe115ZdPBMTq6/m8oO7tln9UE4NTna58k1S9etW5deaPnyy5dWqSpU9s5V0w8OiCuWVOqgoI6TZni3wUxSXrvPfuDukeMiFCvXiFuy7TEM+Xc8bdfPB510Pe6526RNV9UVtp0//37JUnz5nVXt27u/8Zc0feaC+EPx8R1grK3UOd6ZbOmxvPlterq+m2uo4DNcdppja+UBQbWnxAcPSl73bpy5+sePUKUl2d1++WYRF1WZtP27ZU+tyc5uX4VLW/zI/v39/0Kn7v3KMm5vLi7ief+ciwz7e8V7tdfz9Obb+ZrwoRovfii+/krR3MN/54eCg8AnvjaJ0n2x9aEh1tks0kff1zk/Pn27VXasaNKV18d75xrtXJlcYO+a8mSIvXrF6rBg73PYz5aTo5V+/fbT65bqh/wh7/94vGog77Xveb2vXfemam0tCrNmpXoNoi7Q99rLiz4gmPiepuExcs9fa6LhJSXe75k5zraFxt7bM9H8jRZOzjY3s6jb/E4fLj+atf06RmaPj2jyToOHqz12pm4ysmpP367dp7/rxcV5fv79vc9Nkdzrj6uWFGsO+/M1JgxEVq2rG+j5wJ64vo31BJtB2AuvvZJkhQZGaCJE2P08cfFWrq0UNOn2xd1cdzy+atfRaljxyA9+uhBlZTYtHp1iS69NFaGYR9Nuukm/x8j0Rr9gD+OR59B33vsv8eMjBpt2FCpzp2DdNZZkT7v98gjB/XWW/maMaODnnwyyef96HvNhfCHYxIZ6Tqi5/lqkesVtUOHPN9ScOhQ/a0SrXXl0xd/+1uSzjyz6Q/cIUOaNy/jZPlw3bSpUr/8UqP+/UO9Pk/I1YoVxbr22r0aMyZCK1f287pi2tGqq+v/hlz/tgDAF772SQ6TJ8fr44+LtXp1qUpK6hQTE6glS4p01VVxCgyUTj89TAMGhGrnzmotXVqkSy+N1fr15Tp0qLZZ8/1cnSz9wPFE32vnuOh65ZVxTc6Vd/jTnw7qmWeyNHNmR82Z082v+uh7zYXwh2OSkFD/J+TtVoFhwyJksdg/eHftqvJYbteu+onGw4e3zoR3T1yXyu7TJ1QXXuj5weXN0alT/fELCqyKjnZ/H35Z2bEtdNOS/B31W7KkSDfckK6zz47Up5/6F/ykhrfKtG/PxxMA//jaJzlceWWsAgPt0xFWrizW2WdHKTW1Qk88UT9qMnlyvJ55JkvLlxdp3rweWrKkUElJwT6FlKMd3Q94ciL1A62Nvrcxf/vehx46oOefz9aDD3bSP//Z1e/66HvNhXiPYxIdHeBcJcr11oqjdewYpLFj7R2l42Hv7qxda18F7OgHmh4PY8dGOq+wpaV5DqiS9OGHhfrPf/Jktfp+GXH06PoThc2bPc9X8BaOjzfHnANfnjH0/vuFuv76vTr33Ch99lnj4Pfpp8WNVsw7mutEc28PjgcAd3ztkxwSEoJ07rnRkuwn3EuXFik6OqBBAHEs6pKTY9UPP5Rp6dIiTZ7s+4iMqw4dgtSjhz18nCz9QGuj722ooKBO339fqujoAE2Y0HQQvvfe/Xr++Ww98khnt8HvtdfytHGj9zmS9L3mQvjDMRs2zLfVrWbMsD/Q9PPPi5WX1/iKZ1FRnT791B4Ojn746fHQuXOwLrvMsfR3kcfbQ/btq9H116dr7tycBss8N+Wqq+IUHm4v73j8wdF++qncuRhAa3IshOC6Ylp1taF77snUggV5kuz/nhs3+jbnYPHiAk2dmq4LLojRJ5/0dbtYz3PPZen557O9HsfxN9SzZ8gxz/kEYE6+9kkOjtGVlSuL9e67BbrsstgG85THjIlUUpL9YuQTTxzW3r3VzVrl08GxCMeGDRXau9f9svqe+ggH18VsXD/Hly4t0j33ZHp9wPyJhr63Yd+7YkWRrFbp0ktjvS5aZBjSjBmZ+te/cjRrVqL+/vcubstNn56hTz4pcrvNgb7XXAh/OGaOK6Tbtnm/snTjje00fnyUqqsNPfDA/kbbH374gCoqbDrrrEhNm5bg9hh//vMhWSwpat9+47E33I1//rOroqICtGVLpebMaRxUamsN/e53+2SzSY8/7vtkakmKjw/UH/6QKElavDhfK1c2HAUrKqrTXXdlqlOn1r/lont3+5Vn16t927ZVau7cXO3ZY7/66bjt5KqrvF/hfvPNfE2b9otGjIjQ3LndlZ9fpwMHaht9ua7k6snWrfa/oYkTW/a2HwDm4Wuf5OAIcqWlNv34Y3mjuXyuzzj96qsSxccH6rzzopvdvgcf7KQOHYJkGNLtt2eosrLh7alvvZWvzz/3/py4bt1CnJ/Lrp/jb7yRp3//O7fBImstgb63ZfjT93q7wOD423nllVzdfnt73XFHB7f9rq8XAeh7zYUbe3HMrrsuXo88ckA7d1br8OHaBvfvu7JYpI8+6qOJE3dp4cIC5efX6be/TZDFYh85Wr68SIMHh2nZsr4K8HBZIjfX/kHWr1/DxUd27KhScnKFfv65/pbSt98uUECARTfcEK+gIIs+/LBQVVWG83k/KSnlWrSoQGecEa6hQ+2rhp12WphWrOirq6/eqwceOKC1a8t09dXxiokJ1J491Zo3L0c7d1brySeTGjy37sCBWq1ZU9pgzsDq1aXKyrJq+PAIDRpkb++jj3bW1q2V+vDDQl1xxR5dcUWchgwJV16eVUuWFOqGG9pp374aLV/e+CpdYaF9ZNRdHeefH60uXYL13XdlysiocV7FO3CgRosWFahjxyBddFH9h/q118Zr9uxsrVtXpjlzctS9e4iefTZLISEW3XJL/Yp3kvdbPpcvL9L//d8+GYb0888V6tdvq8eykjRhgucTJqvV0Hff2W/79XV5agA4mq99kkP37iEaMSJCqakVCg21OEehXE2ZEqdXXsmVJF1xRZzbkafaWkPvvWf/3Cwutn9Ob91apUWLCpSUFKwLLrB//nXoEKQlS/ro0kt36+uvS3X66ds0eXKcoqIC9OOP5VqzplR//WuS/vKXQ5Lsn7OdOgVr7NhI9e5tvyUvOjpAF18co88/L9Ff/3pIJSWdtH17lVauLNbUqe0UFRXQYv2iRN97vPreykqbvvyyRCEh7v8OHR566IBee80+UrhgQZ5z1LA56HtNyEDzJM8zjPkj67+S57V1i1qNJEP2C031X0eZMmWPISUbs2dnNXm86mqb8fzzWcbIkduN6OhUIyoq1Rg+fJvxzDOHjcpKm9d9x4zZbkjJxl/+crDBz194IduQkt1+lZbWGYZhGAkJG9xuf/TRA43qycmpNf70pwPGkCHbjMjIVCM4OMXo3n2zceON6cbatWWNyi9dWuix/r///XCDsjabYbz2Wq4xZsx2IzIy1YiJSTXOPDPNeOONPMMwDGPSpN2GlGxMn76vwX4bNlR4rGPFiiLDMAzjmmv2uN1+zjlpjdq8aFG+MXToNiM0NMWIi9tgnHNOmrFqVYlhGIaRl1drBAYmGzExqUZ1ted/kyefPOSxTe6+JkzY6fFYy5bZf4dDhmzzWAYAfOFPn2QY9Z9lkybtdru9psZmxMXZ+5ClSwvdlikstHr87Lv44l2NyqenVxu33PKLkZS0yQgOTjE6d95oXHvtXiM5udzt572jj3DIzq41fvObdKNDh41GcHCK0avXZuO++zKN4mKrYRgt2y/S9x6fvtfxftz9vbiaMGGnX33vk08e8ngsn/pel/M/5zkhTloWwzhZFr49waTMl1Jerf9+5HRp5B1t155W5Hj+S4M/lKP+bNLTqzV48DYlJARpx47BrbJU8LZtVTrjjG0KDrYoPf0MdelyfBeEOV5Gj05TcnLFkSu/iW3ShjffzNett+7T9df///buOzyqMmH/+D3pIYUQeqiRpnQpKigIImJZFQF/C/bXAiqugIq6NlZ9F11cxYKiyGsDhFUhIIogqFgoSiB0BEKHkJBOej2/P2ZnkjAlmTBJIOf72SvXlc15zjnPYeI8uedpjbRo0QU1fr/SUumyy6zP/fPPXTRoUGiN3xNA/VUbbZIuMbJSAAAgAElEQVRZ0PbWnnvuOaxPP03V7Nlt9eCDTWv8flVue8vN/bB9R3w4f/FuCK+44IJAffBBOx0/XqSHHz7q9etnZ5fq3nsPyTCkd95pe942Pn/8kaNp0xJcHk9PL9GOHdax97YhQnWhOhu7n42XXz6pTZtyNW1aFMEPwFmr6TbJLGh7a09JifTNNxkV5pjWNNpec2LOH7zmzjsbKy/PumqVr680d257l3P3PPXCCycUG5ur6dNbafz4Jt65aB3Yvj1PL710UpdeGuJ0PP+zz55QQYGhQYNCdcUVdfdGPHBgiHr3DnY758BbXn75pF58MUHPPNNC06bVzaetAOqfmmyTzIK2t/akphbrkUeaKTLSr9J5qt5A22tehD941fjxTdSrV7AeffSocnNLPd7k25V//rOVxoyJtO8VeL679daDuu++Jho4MEQREX46caJQCxem6YcfstStW1CtDLV058knW9TavdasOa1vvulYK0ETgLnUVJtkFrS9tadZMz+PVzI9G7S95sWcv+pizp/bcwxD1doAt77LyyvVqlWntXRphrZsyVVSUpHS0ooVFuar7t2DNXp0Iz3wQBOn++TVV6Wl4tN4ADWKNsncaHsdedT2MuevXiH8VRfhr07qAgAAgFpE+KtXzPMRBwAAAACYGOEPAAAAAEyA8AcAAAAAJkD4AwAAAAATIPwBAAAAgAkQ/gAAAADABAh/AAAAAGAChD8AAAAAMAHCHwAAAACYAOEPAAAAAEyA8AcAAAAAJkD4AwAAAAATIPwBAAAAgAkQ/gAAAADABAh/AAAAAGAChD8AAAAAMAHCHwAAAACYAOEPAAAAAEyA8AcAAAAAJkD4AwAAAAATIPwBAAAAgAkQ/gAAAADABAh/AAAAAGAChD8AAAAAMAHCHwAAAACYAOEPAAAAAEyA8AcAAAAAJkD4AwAAAAATIPwBAAAAgAkQ/gAAAADABAh/AAAAAGAChD8AAAAAMAHCHwAAAACYAOEPAAAAAEyA8AcAAAAAJkD4AwAAAAATIPwBAAAAgAkQ/gAAAADABAh/AAAAAGAChD8AAAAAMAHCHwAAAACYAOEPAAAAAEyA8AcAAAAAJkD4AwAAAAATIPwBAAAAgAkQ/gAAAADABAh/AAAAAGAChD8AAAAAMAHCHwAAAACYAOEPAAAAAEyA8AcAAAAAJkD4AwAAAAATIPwBAAAAgAkQ/gAAAADABAh/AAAAAGAChD8AAAAAMAHCHwAAAACYAOEPAAAAAEyA8AcAAAAAJkD4AwAAAAATIPwBAAAAgAkQ/gAAAADABAh/AAAAAGAChD8AAAAAMAHCHwAAAACYAOEPAAAAAEyA8AcAAAAAJkD4AwAAAAATIPwBAAAAgAkQ/gAAAADABAh/AAAAAGAChD8AAAAAMAHCHwAAAACYAOEPAAAAAEyA8AcAAAAAJkD4AwAAAAATIPwBAAAAgAkQ/gAAAADABAh/AAAAAGAChD8AAAAAMAHCHwAAAACYAOEPAAAAAEyA8AcAAAAAJkD4AwAAAAATIPwBAAAAgAkQ/gAAAADABAh/AAAAAGAChD8AAAAAMAHCHwAAAACYAOEPAAAAAEyA8AcAAAAAJkD4AwAAAAATIPwBAAAAgAkQ/gAAAADABAh/AAAAAGAChD8AAAAAMAHCHwAAAACYAOEPAAAAAEyA8AcAAAAAJkD4AwAAAAATIPwBAAAAgAkQ/gAAAADABAh/AAAAAGAChD8AAAAAMAHCHwAAAACYAOEPAAAAAEyA8AcAAAAAJkD4AwAAAAATIPwBAAAAgAkQ/gAAAADABAh/AAAAAGAChD8AAAAAMAHCHwAAAACYAOEPAAAAAEyA8AcAAAAAJkD4AwAAAAATIPwBAAAAgAkQ/gAAAADABAh/AAAAAGAChD8AAAAAMAHCHwAAAACYAOEPAAAAAEyA8AcAAAAAJkD4AwAAAAATIPwBAAAAgAkQ/gAAAADABAh/AAAAAGAChD8AAAAAMAHCHwAAAACYAOEPAAAAAEyA8AcAAAAAJkD4AwAAAAATIPwBAAAAgAkQ/gAAAADABAh/AAAAAGAChD8AAAAAMAHCHwAAAACYAOEPAAAAAEyA8AcAAAAAJkD4AwAAAAATIPwBAAAAgAkQ/gAAAADABAh/AAAAAGAChD8AAAAAMAHCHwAAAACYAOEPAAAAAEyA8AcAAAAAJkD4AwAAAAATIPwBAAAAgAkQ/gAAAADABAh/AAAAAGAChD8AAAAAMAHCHwAAAACYAOEPAAAAAEyA8AcAAAAAJkD4AwAAAAATIPwBAAAAgAkQ/gAAAADABAh/AAAAAGAChD8AAAAAMAHCHwAAAACYAOEPAAAAAEyA8AcAAAAAJkD4AwAAAAATIPyhRn36aarefPNUrd6zd+/dslg227+uuOLPWr1/bajtZ5w2LUHLlmXU6D0A4HxTF21cdbVuvb1Cu3HHHYeqfa3aaINoy72PthwS4Q81JCenVKNHH9DDDx9Vly6BLsslJRXriSeOq0uXnWrQYIuaNt2mq6/ep//8J73a954+vZXmzYvW8OHh1b6GNzz/fILCw+P02mtJXr92bT/jBRcE2l/P4mKjVu4JAOeqqrZx3rZ8eaYiI7dq1KgDMjx8K37nnbaaNy9affs2OOt61EYbdC605UVFhq65Zr+aNt2mn37K8vr1actRFwh/8LriYkOjRh3Q8uWZWr68o667rqHTcn/8kaMePXZp5swkDRsWrnnzovW//xulxMQijR17UOPGHVRJief3v/76hrrjjkh17lx7DbIz77+frKysUs2Zk+z1a3vrGbduzbN/4vjnn/kuy919d2N98km0Zs9O1v33HzmrewLA+ayqbVxN+OyzVKWnlygmJkMJCUUenXvLLRG6445ItW4d4Lbcm2+eksWyWS1abHNZpjba2XOhLd+3r0CrV59WSkqxPv88zevXpy1HXSD8wetefPGkvv/+tJ5+uoWuuirMaZnExCLdeGO8kpOLNXt2O733XluNHt1IEyY01YYNF6l79yAtWpSuZ545Xsu1955nnmmhDh0C9eSTLeq6Kl5xxx2Ruvvuxvr001TNmZNS19UBgDpRlTaupkyc2FQXXhik8eObqFUr/1q9txldeGGQbr89Ul27BumBB5rUdXW8grYchD941cGDBZoxI1FhYT6aOtV16Jk2LUGnThXr4ouDNX58xTfUsDAf/fvfbSRJM2ee0v79BTVa55oyZUpzxcd3rzcNhiS9+GKUfH2lp58+royManTLAsB5rKptXE0ZMiRMe/Z00wcftKv1e5uRr680f360du3qpksuCanr6ngNbbm5Ef7gVbNmnVJhoaGRIyMUFub81ys7u1SffZYqSbrjjsZOywwfHq5mzfxUVGToww+9P2wS1dOuXYAGDw5TenqJPvqITwwBmEtV2jjgXEdbbm68c8FrDENasMA6Jn7YMNeTl1euzFR+vnWi8eWXhzot4+MjDRhgPRYT452Vqb77LlODBu1VWFicwsPjdNVV+6o0gTsuLld33XVIbdtuV2DgFkVGbtWAAX/q3/9OUm5uqUP5yZOPVVi9y2LZ7HJidVZWqZ577oS6dNmpoKAtatJkq4YO3acvvrAueBMRsbXCde6557BXnnHt2ixZLJt18cW77T+76KJdFe71xBPOh9wOG2Yd5jRvXqrbugBAfVJZG5eSUuzw3m/7srV5Nr16WVd5jI+vOLLl1VcTHc59//1kLV2a4fDzNWtOu6zn3LkpuvTSPQoNjVNEhLXN+vRT9+/Z//hHgiyWzZoy5Zgk64JsZ97zm28y3V6juu2sJ2qrLfdkJU7acpxP/Oq6Aqg/tm3L06lTxZKkHj2CXZbbsiXX/n2XLkEuy9kmQB84UKCsrNKz+pT1o49SNH78EfXoEaxOnQK1e3e+fvopS7/+mqXVqztryBDn8zZmzEjU00+fUHi4rx5/vLn69GmgtLRiffppqqZOPa45c5K1alVnRUeXTaC/887G6tcvRJs25ejtt10vAZ6QUKShQ/dq374CNWzoqzvvbKw2bQIUH5+vu+8+pE2bcuxl77uviYYMCVOHDq4nhXvyjBddFKx586J19Gihnn32xH+ftbVatiybQ9K1q/PXpmdP60px27blKSmpWM2b8zYCoP6rrI0LC/PVvHnR+vbbDC1alK7gYIvmzGkvSQoIsNjLHThQoO3b8yRJS5dm6IknmtuP3XhjhFq3DtCHHybr0KECTZ/eWpdeGqLgYB/Nmxet7OwSPfTQUZd1LCoy9Ne/HlRMTIZ8fKSRIyPUs2cDJScX6emnj1dof880alQjdewYpFWrMjV/fpoaNvTVrFltK5S5+GLXK4VWt531RG225dOnt1JaWok++yxVq1c7D9oSbTnOQwaqJ/Z9w/igb9lX7Pt1XaMaI8mQ9cPEsi8n5s5NNqRYQ4o10tKKXV5v9Oh4Q4o1goM3u73vm28m2a+3eXOOx/WeOPGIIcUaHTrsMLp02WHs3JlnP3bwYIERHb3dkGKNwYP/dHr+Z5+lGFKsERi42YiLy61wrLTUMMaNO2hIsUbv3ruMwsJSh/O//DLNXv+iolKH8wcP/tOQYo1WrbYZhw8XVDi+bVuuERERZ1gs1vM//DC5Rp4xLi7XXsc9e/KcljnTrl159nNWrMio0jkAcL6rahu3aVOOvVxsrGPbNWNGov34wIF7nF6jXbvtxpQpRx1+npxcZD939epMh+PPP3/CkGINP79Y47vvKh5PTy82+vTZbTRrttWQYo3bbz/o9N4zZ1rb3ubNt7p8RpuzbYOqoq7bctv9L7/c8bUyTVte7u8/+9+EOG8x7BNeY1uYxd/fokaNfF2Wy8y0Ti4OCXFdRpIaNCj79TybCckHDhTo1Vdbq1u3sk+/oqMDNGmS9dPWdeuyHYbk5OaW6rHHrEMl7r+/iXr3rvgpr8Vi/XTNx8e6xPKiRZ4tAb1iRaZ++SVbkvTPf7ZSu3YVl97u2TNYf/97iyrv41SdZ6yuZs3KPh08XxfjAQBPVbWN69evgdq0sfa8xMQ47lkbE5Oupk2t76MbNuQoMbHilg2bN+fqyJFC3XJLI4/ql5parNdeS5RknU9/7bUVh6ZGRPhq9uy29t5Lb6qNNoi2nLYc3kH4g9ecOmVtwCobnmkbW19+GIwzgYFlx52Nx6+qkBAf/eUvjvsw9e5tHfJQUiIdP15Y4djXX2coJcXaQLpqgFu39le3btaGZOFCzxqM//zHWt7Hx7r3kjNjxlS94a/OM1ZXWFjZHz1JSZ7tMwUA56uqtnGSdPPN1vf1M+esnzxZpI0bc/Svf7WWv79FhiEtW1axTExMupo183M5J96VZcsy7MHAVftxySUh9mDqTbXRBtGW05bDOwh/8Jrs7KqFuuBg669dYaH7T68KCsqOl+8F9FTHjoHy83OsU2Rk2RtfTk7FcLl+fdkY/agof6WkFDv9ioqyNqK//54jT8TGWuddtGsXoPBw558gR0cHyq+KQ/Cr84zVVT6U215zAKjvqtrGSWVBY/fu/Aq9KjExGQoO9tFf/9rIPnfrzIC4ZEmGbr45Qj4eNnu2dkVyP+++c2fXc+2rqzbaINpyK9pynC1md8JrbMMaLBb3DWNEhPVNLCfH/VDO8r19DRu6HyLqTmio8xbU37+snmcOyTh5suxTsK5dd1V6j7S0EuXnGwoKqvyPAqnsE+TISNf/CVos1qGxtmGy7lTnGc+GxVI2AQAAzKCqbZwkDR4cqshIX6WllSgmJl1PPmndEzAmJl0jRoSrQQMf3XJLhFavPq0ff8xSZmaJGjb01d69+dqzJ1+vv97a4/rZ2hXJfdsSGlr99tT1NWu+DaItt6Itx9ki/MFrQkJsPXruP0GyfeqYl2coI6PEHgbPlJBQNrShUyfXK2PVtOXLO1apIfCtRnt6Pr7hFhYa9nrbXnMAqO+q2sZJkp+fRX/5S4Q++yxVMTEZevLJFkpPL9HatVn6+ONoSdahoRMnHlVRkaFvv83UbbdFasmSDIWH+7jdLqkqzse2pabRlldEW25ehD94TePG1l+nyoYk9OlTtlT0vn35uuSSEKfl9u2zDpXp2DHQ5XCKmlJ+meR+/RqoRQvvzpFo3txfqaklSktzPfHeMCrvHa0L5V/fJk14CwFgDlVt42xuucUa/n7/PUcnTxbp++9Py2Kx2Od0RUX565JLQvT77zmKicn4b/hL1w03RFRpaOmZmjcva6fS0ooVFhbgtFx29rnXrtQU2nLXaMvNi6gPr+nY0do7l59v6PRp1290I0Y0tH/6Vn48fnmlpdKGDdYVtEaOdD6JuiaVn2i/Z0++y3J5eaWaOzfFYcJ+Zfr3twbeo0cLXQ4FOXSoQMXeX5TtrJWfGG57zQGgvqtqG2djG95pW9QlJiZDQ4aEVRjtYlsk5LvvMrV/f4FiY3NdLhxSGVu7Ism+j6Az+/a5btPqG9py12jLzYvwB6+xrUYlSUeOuF6NKizMR3fe2ViSNH9+qtMyP/xwWklJxfLzk8aPb+rdilbBTTc1tC/FvWSJ41LdNl9+ma4HHjiin3/O8uj6Y8dGSrKG3CVLnDc2X33l+r7eUv7T5ZJy7VZMTIYeeeSojh93XAGs/Gvbq5frDX8BoD6pahtnExzso2uusQ7fnD8/Vd9/n6lRoyoGO9vCMDk5pZo48aiCgiy67jrH1R6r4uabIxQcbH1Pd9V+/PFHjo4dc7+yo61dKDkjy8yYkaipU49Xq251hbacthyOCH/wmv79Gyg83PortWuX608dJemll6LUrJmfNm/O1f/9X0qFYzk5pfYG5rHHmruc7zdo0F5ZLJs1ZswBL9S+ouBgH82c2UaSNGdOijZudOyhPH68SH//+wmFh/voscdaeHT9ESPCNXSodaW3Z589oUOHKv4hsX17nt57L7nCalw1oU2bANnWLij/KeDHH6fovfeSnc7H3LnT+tp26hSo9u2dDysCgPrGkzbOxtaLt25djvLzDfsWEDadOwfqoous8+BXrz6t4cPDXS76UZlGjXz11FMtJUkLFqRqxYrMCsczMkr04INHVNl6NW3bBvy3fLF9Ve6iIkMzZiR6HI6qgrb87NGWwxMM8oXX+PlZNHp0I338carWrs2yfyLmTIsW/lq+vKNuuCFeEyYc0fbteRo2LEwpKcV6661T2r49T2PHNtL06a5XPEtOtr7BdepUcdnqn3/O1rFjhfY5g8nJxZo/P02NG/vquusaKjOzRMuXZ1ZYBWzFikzt3Jmnq68Os88JuP32SJ06VaQnnjiuoUP3asKEprryyjAZhhQXl6v33julggJDixd3UOvWZfMINm/O1Z49+dq0qayR+fzzNPn4WHTtteFq0sRPFov0+efRGjp0n/78M1+9eu3Srbc2UuvWAYqPL9DXX2foo4/a64EHjqigwHEoibeeMSzMRyNGhGvlytN68cUEnT7dXLt352vFCuviA87+CPnxR2vj7+71BYD6xpM2zubGGyPk5ycVF0sDBoRUmINmc8stEdqzJ/G/3zvfE+748SKtXZtVYb7eDz9kKTGxWBdf3MC+Kfizz7bQzp15+uqrdN14Y7xuvDFCPXsGKyWlWEuWpKtTpyBde224vvvutA4dKtD8+WkKDfWpML1i6NAwNW7sq9TUEj366FFdf31DLV6codTUEr36qnUkjrfaIOu552ZbvmJFptLSShzu7+srjRtnfe1py3FeMlA9se8bxgd9y75i36/rGtUYSYbKVgO2frmwdWuuYbHEGk2bbjXy80srvXZiYpHx+OPHjE6ddhhBQZuNxo3jjKuu2mssWpTm9ryMjGIjIGCzIcUaP/54usKxm2+ON6RYh6++fXcbhmEYO3bkOj0uxRqrV2c63GvHjlzjvvsOG9HR243AwM1GUNBm46KLdhqTJh01jhwpcCg/adJRl9ffsCG7QtmsrBLjuedOGJ077zACAzcbTZtuNf7yl/3Gr79mGYZhGCEhWwwp1liwILXGnjEpqci4/faDRtOmWw1//81GdPR2Y/Lko0ZmZrHDsyUlFdn/DRISCt2+RgBQ33jaxhmGYQwbtteQYo3XXkt0enzTphxDijV8fWON5OQip2ViYtJdvqe/8srJCmVLSw1j7txk45JLdhshIVuM0NAtRq9eu4xXXjlpFBSUOrQf7dptd7jfH3/kGFddtdcIDd1iBAdvNrp122m8++4po/S/j+ytNuhcbst79drl9NqBgZsdytb7trzc33/2vwlx3rIYxvm4QO05YPMH0uYPy/5/3wekvhPqrj41yLanUYVfFDe/NuPHH9GHH6borbfa6NFHm9VInd57L1kTJx5Vt25B2rmzW43co65lZ5cqLCxOkvTzz100eHBoJWfUvMcfP6433kjSyy9H6bnnWtZ1dQCg1tVGG2cWtOV1w+O2vNxYYdt3xIfzF3P+3Ende25d5zzx+utt1Lt3sJ599oTbFceqa9++Aj333AkFB1s0f/4FXr9+bVm4ME2ffeZ8wRtJ+uUX65CM0FAf9e9f95Oxf/ghS2+/naThw8P11FOezYsAgPqipts4s6Atrxu05SD8uXN4rbR8gpQQW73zE2Kt5x9e681anfPCwnz03Xed1LVrkIYP36fff3e+nUN1jRt3UJIUE9NRvXsHe/XatenbbzM1adIxnTjhuApXTk6pXnghQZI0ZUpzBQfX7X+qK1ZkauTIeF19dbgWL+4gf/+anbwOAOeqmm7jzIK2vPbRlkOSGPbpTmGW9PmNUmG21LKvdWhnVD/rMXfDPhNircdObpYCQqXblksBYbVffy/xdNinTUGBof/935OyWKyre3rLgQMF8vGxKDr6/F6d6o47DmnBgjS1bu2vCROaqmvXYAUGWrR3b74++CBZ+/YVaMyYRlq4MFp+fnX7Bv3QQ0fVqVOgJk9uLh8+MgKAGmvjzIK2vPZVuy1n2Ge9QvirzJkhzxYCT252DH8t+5aFvvI/P8/nAlY3/NmUlorA4ERycrGWLcvQ119naP/+AiUmFiknp1SNG/uqf/8Q3XNPE4c9oeoKryEAOMf7o7mZoi0n/NUrhL/KlO/9Ky+0pZSVYP0PwjCksCgp+2TFMvWg1086+/AHAACA8xThr17hs6rKBIRJPcY5/jz7ZFnws1gcg59kPe88D34AAAAA6gfCX1X0uM3ai+eMxcX47YBQ63kAAAAAcA4g/FWFq94/d+j1AwAAAHAOIfxVlbvevzPR6wcAAADgHEP4qyqXvX9OJrzS6wcAAADgHEP484Sz3r8zsx+9fgAAAADOQYQ/Tzjr/TtzwRd6/QAAAACcgwh/nnI3949ePwAAAADnKMKfp9yt/EmvHwAAAIBzFOGvOpz1/tHrBwAAAOAcRvirDme9f/T6AQAAADiHEf6qq3zvH71+AAAAAM5xhL/qKt/7R68fAAAAgHOcX11X4LzW4zZp73Jz9vqducUFAAAAgHOaxTCMM7cphyeyEqSwqLquRY2y/Dfo8YsCAABgXraP/okP5y/CHypF+AMAAADh7/zHsE9UGQM9AQAAgPMXC74AAAAAgAnQ84dK0bUPAAAAnP/o+QMAAAAAEyD8AQAAAIAJEP4AAAAAwAQIfwAAAABgAoQ/AAAAADABwh8AAABQD+UU5+j5Tc/rx4Qfa+2eM3fMlGWORZY5Fs3fP7/W7uuJ7KJstZ7fWpY5FnVc1LGuq+PWfw78R69vf11FpUVeuR5bPQAAAAD1TPzpeI1cNVI5RTm6/6L73ZZdfmS5FsQv0O9JvysxL1HBvsFq2aClLm5ysYZGDdW4juPUwK9BpfdMzE3UP2L/4XFdt6Rs0cwdM7U2Ya2S85LVJKiJBrccrMk9JuuSZpd4fL3KvLTlJZ3IPeHROWsT1mrOnjnakLRBiXmJMgxDLRu01MAWA/Vg1wc1qMWgSq9RnefsEtFFj6x7RDGHYrT4msVqHtzco3qfyWKwiRsAAABQb5zIOaEBSwdIkjbeslFRDaKclssszNTYNWO16vgqjYoepevaXKemwU2VmJuohfELtfbkWknSjjE71D2ye6X3vePHO7QgfoH9/88bOk93dLrD7Tlz9szRxN8mKsw/TFN6TlH3yO7ak75Hb2x/QxmFGXpjwBt6tPujVXzyyu3J2KNeX/Wy96R1CO+g+LHxbs+ZtH6S3t75tnzko3svvFeDWw6Wj3z0a+KvmvvnXJUYJZraa6pmXDqjRp5zV/ouXb7scrUNbavfbvpN4QHh1X5+wh8AAABQTxgyNOTrIfol8RetuWGNhrUa5rRcQUmBhiwfoi0pWxRzTYyub3u9w3VuXX2rFh9aXKXw92virxr89WBd1+Y6fXfsO0mVh781J9ZoxLcj5O/jrz9G/aGekT3tx3an71b/mP7KK87T8muX64a2N1T1n8Ctq7+5WpuSN6lHZA+tS1pXafj7bN9nunvt3S6f56uDX+nWNbdKkhYOW6ixHcY6XMMbz/nJ3k/0Pz//j8Z1GKfPh33u8XPbMOcPAAAAqCc+3/+5fkn8RUNaDnEZ/CRpetx0bTy1UVN7TXUIfpJkkUXTL5mumQNmqmWDlm7vWWKUaOJvExXVIEov9H2hSvUsMUo0ad0klapUD3d7uEIgkqSujbrq0e6PypChyesnq7i0uErXdeeLA1/oh4QfNK3vNLVo0KJK53y892NJUnRYtNMgO+aCMbow4kJJ1t69M3nrOe/ucrc6hnfUwgML9fPJn6tUd2cIfwAAAEA98fr21yVJd3a+02WZ04Wn9dq212SRRQ91fchluc4NO2tyj8lqHNTY7T3f2fmOdqTt0GuXvaZQv9Aq1fOnhJ+0O2O3JLnsHbT9PP50vL4//n2VrutKTnGOHt/4uLpGdPVoGOmR7COSpI7hrheG6RTeSZK0L2OfwzFvPadFFt3Zyfqavr7t9SrW3hHhDwAAAKgHdqfvVlxqnCS57fX78uCXyivJU6eGndQqpJX956kWpS8AABR1SURBVMZ//+eJpLwkTYudpsEtBuu2jrdV+bylh5dKkkL8QtSrcS+nZbo26qpGAY0kSTGHYzyq15le2vySjucc1ztXvCM/n6qvedki2NpDeDL3pMsyCbkJkqSwgDCHY958Tttr+u3Rb5VWkFaF2jsi/AEAAAD1gK3XKMw/TO1C27ksZ1vIpVPDTsotztX0uOnq8WUPBc4NlP+H/or+PFoP//awDmcdrvSeUzdOVU5xjmZdMcujum5J3iLJ2qPma/F1WsYiizo2tPa4xaXEeXT98v7M+FMzd8zUrRfcqquirvLo3P/p8j+SrMF6U/Imh+PbUrdpa+pWSdKN7W50OO7N5+zZ2DpktFSlWnN8jQdPUYbwBwAAANQDm1M2S7LOT3PHFjCyCrPUd0lfzdo1S/dfeL++v/57fTX8K/Vq3Euzd89Wjy97uB1u+Vvib5q3f54e7vqwekT28Kiu+zKtQySjQpyvRGpj65m0la+Ov637m/x9/PX6ZZ4Pl3zgogf0cr+X5evjq5tW3qRP932qw1mHdST7iBbsX6AbvrtBJUaJrmhxhZ7v87zD+d58zjD/MDUNaiqp7LX2FPv8AQAAAPXA/sz9kqRmwc3clkvIsQ5T/CXxF0UGRipudJzahra1Hx/ZfqQm/DpBc/bM0a2rb9XWMVsdAqVtkZdmQc30Uv+XPK5rZmGmJOtwSHds+wtmFWWpxChx2XvmypcHv9SaE2s0vf90tQlt43E9Jem5Ps9pVPQoPbHxCd2z9p4Kxwa3GKzn+jynBy56wGndvP2czYKbKTk/2f5ae8pUPX/rEtdp4m8T67oaFdy86mZZ5lhkmWPR8ZzjdV0dt+766S7tSNtR19UAAACAE6fyTkmSwv3d7wOXVZRl/35yj8kVgp/Nvy79l4J8g3S66LSmx013OD5r5yxtT9uuVy99VREBER7Vs6i0SMWGdVXLAN8At2UDfQPt3+cV53l0n5ziHD2+4XF1Cu+kx3s97tG5NoYMvRL3ii6NuVQbkzZqWt9pWnn9Sq26fpVe7Puijucc1+rjq7UnfY/DuTXxnGH+1nmFSXlJ1Xkc84S/6XHTNfjrwW4/CSksLdTMHTPVf0l/Nfy4ocI/DlefxX00Y9sM5Zfke71OK46u0NdHvvbonMzCTE2Pm64BSweo0SeN5Pehnxp90kgDlw7Uv7b+q8J/zK5U9zkDfQPVf0l//d+f/+dRnQEAAFDzsouyJVUeNEqNUvv317W5zmmZiIAIXdHiCknSssPLKhxLykvStM3TdFmzy3RPl3s8rqe/j7/8LNYBiIUlhW7LFpQU2L8P9gv26D4vb35Zx3KO6a3L31KAj/t/E1ee2PCEntn0jIqNYm0YuUH/6PsPjWg9Qte0vkYv9H1B39/wvX5K+En9lvTTogOLKpxbE89pC4m219pTpgh/L21+Sc9uelb/6PcPTes7zWmZ1PxUXRZzmR7b8JgigyL13hXv6YNBH6hlg5Z66ven1H9J/2onbGcKSgo0af0kj87ZmbZTXb/oqmc3PavU/FS90PcFfXH1F5rWd5rSC9P19B9Pq/uX3bU3Y6/La5zNc344+EPd1fku3f/L/fY9TwAAAHBusK3UaZHFbblQ/7LtGC4Iv8BluU4NrVsYJOcnKzk/2f7zJzc+qazCLM26Ylal93KlYUBDSdbeOXdyi3OtdfYL9WjI596MvZq5Y6ZuaneTy4BbmfjT8Xpzx5uSpEe6PaIuEV0cynQI76DHej6mgtIC3ffzfQ5/R3v7OW3/3p6uympT78PfDyd+0LTN1uVnnU3ClKz/eKNXj1Zcapxu63ibVl6/Urd3ul3jOo7Tt9d9q3s636Od6Ts1ctXICp+UnI0Z22Yo/nR8lX8Zi0uLNXr1aCXkJqh7o+7afut2TekxRaOiR2lyj8naNmabLm58sY5mH9Wo70epxCipked85/J31LlhZ034dYJ2pe86q38DAAAAeI9tXllhqftepvLbO5QfbujqepJ1cRhJWp+0XvP2z9OYC8aoVYNWSsxNrPCVWpBqPyezMNP+8zNDUeeGnSWVzT90xXa8c0Rnt+XO9Oj6R1VqlOrp3k871DExN9He01ZSWlLh5+VD2vfHvleprH8TD2o5yOW9rmplXUE0tzjXoZfU289pq3dlcwhdqdfhr9Qo1cO/PSxJbieiLopfpJ9P/qwAnwC9OfBNh08w3hjwhoJ9g7Xx1EZ9tu+zs67XkewjeiXuFd3Y9kZd3/b6Kp2zLmmdffWfqb2mKsg3qMLxAJ8APdX7KUnS7ozdWpe4zuEa3njOQN9APdfnORWVFumR3x6pUt0BAABQ82ybsVc2JLD8fnOnC0+7LFf+OhGB1nl96xPXy5ChLw5+oZbzWzp8DVk+xH7OI+sesf+81fxWFa7dp2kfSdKB0wdcdjoYMuwLm/Rp0sftM51pXeI6FRvFGrhsoNN6fnP0G0nS4ezDFX4+c/tM+zVS8lPs30c1cL1aZ2RgpP1726bwNfWctnDaJKiJ23Ku1OvVPr85+o32Ze5T29C2urLllS7LvbvrXUnSiNYj7MunltcosJFuaHuDvjr0ld7b/V61xjaXN2ndJBky9ObAN7Xi2IoqnXMkq+wXybYPyJlsXfOSdZnYwS0HVzjuree89YJbNeGXCVp7cq22pGzx+D9GAAAAeF/H8I7akrLFvvCLK9e2udY+P213+m61bNDSabm9mdapRO1C29kDzpgLxqh7ZHeX1z6SfUQP/vqgJGuHhW1fPR9LxT6nke1H6t1d7yq7OFvb07ard+PeDtfak75H6YXp9vKeWDpiqYpLi10e/2fcP/Vb4m9q2aClPrryI/vPbT11khQZVBbqjuccV7+m/Zxeq3xIPHOxHW8/p60H1VUeqEy9Dn/z98+XJLebOSbnJ2t90npJ0uUtLndZ7vIWl+urQ19pU/Imncg5UaG73BMrj63UsiPL9Hyf592OsT5TiwYt7N+fzD3ptExCbll3sm0lIBtvPmeQb5Aub3G51pxYo3n75xH+AAAAzgG9G/fWFwe/cOh9OtOo6FF6bMNjSitIU8zhGA1rNcyhTEp+in0k2W0db7P/vH1Ye7UPa+/y2jvTdtq/7xnZU9e2udZpuaFRQ3VRxEXak7FH8/fPdxqKFsQvkGQNtde0vsbtM53p6lZXuz0+98+5kqxbLLiqY/mOlLUJa10GszUnyjZcH9hiYIVj3nzOvOI8JedZ5146u05V1Nthn6VGqX448YMkud10Mi4lzj5h0tkkTpvynwLEpcZVq04FJQX627q/qV1oO/299989OndI1BD7/iqf7P3EaRnbzxv4NXD4j9jbz9kzsqckadWxVZXWHQAAADXv6tbWwJNWkKbE3ESX5cL8w/SvS/8lSZq7Z662pGxxKPP4hsdVWFqodqHtNLXXVK/X1dfiq7cGviUf+ejdXe9WCI2SdcGWt3a8JYssenPgm/L38Xe4RolRYt8ybdauWV6vY8/Inrq+jXWK1vu733e63sXejL32RWEGNh9oXyHVxhvPabM7Y7d9DuLw1sOr9Uz1tufvUNYhpRWkSZKiw6NdlrPNo5Pcj+Ut3wO2L2Of5LgdSqVe2/aa4k/Ha/HwxR4vVRvgE6AV163QuB/G6Zuj3+i2H27TlJ5T1D6svY5mH9XbO97W4kOLFeQbpLmD5zqMA/b2c3YI7yBJ+jPjT+UW59o3pgQAAEDd6Ne0nzqEd9CB0we09uRaje0w1mXZ+y+8X8eyj+nlLS9ryPIhmtJjii5pdokyCjL0yb5PtObEGnUI76Bvrv1GjQIbub1vSn6KVh5bKUkV9q22jTqTpEubXVphipJkDTCzB83WxN8m6srlV2pqr6nqHtlde9L36LVtrym/JF9vDnxTN7S9wel9bb1gkhyu7cyPCT/aF1Y5mn1UknVeo220YLBfsEZHj65wzvyr5uvGlTdqXdI6DVw6UA93e1gDmg+QRRZtPLVR7+56V5mFmerduLcWD1/sdPXTs31Oe/1P/ChJGtRikNu/592pt+Gv/K73zYJc7+2XWZhp/z7E3/WqOeXDTUZhhsf1OZJ9RNPjpuua1tdoVPQoj8+XpAsjLtSmWzbpnV3v6JW4V7TwwEL7scaBjfVQ14f0SLdH1LVRV4dzvf2ctv0SDRmKPx1v7wkEAABA3bDIoke7P6pJ6ydpYfxCt+FPkl7s96JGtBmhWTtn6aO9H+mVra+ogV8DdWvUTf++7N96sOuDVVpVMv50vO786U6Hn8/ePVuzd8+2fn/FbKcBbfxF49WvaT+9sf0Nzdo5S8n5yWoS1ETDWg2zB1JXbKPUQv1CNaDZgErrOWPrDK06XnHUWlJekr3uzYObO4S/RoGN9MtNv+iLg19oUfwizd8/XzO3z5QhQ02Cmujy5pfr1gtu1R2d7pCfj+todTbPafN5/OeSpCk9p1Ra1pV6G/7KT3QNDwh3Wc62p4Ykt5s/ll8Gt/w5VTV5/WQVG8V6e+DbHp9rsydjj+7/+X6tT1qva1pfo7s63aWokCidzD2pBfsXaH3ierUPa68uEV0c9gfx9nOGBZTNKUzKTZIiXRYFAABALXmo60Oas2eOvjnyjeJS4nRxk4vdlh/YfKAGNh/otkxlLmt2mYzx1dt3TrKucDn/qvken2fbd/quzne5/XvfZuX1Kz2+h2RdrGZsh7GVhunKVPc5JWn5keXamrpVw6KG6Zb2t1S7DvV2zl/5pWndhZ1g37Lhl+72RLHtqSHJ4yGOq46v0tLDSzWlxxS38+3cOZx1WFcsu0Lrk9br3i73atX1q3R7p9s1NGqobut4m7697ltdGXWlnvr9KQ3+erDDRpLefs5An7KQmF3sfjlhAAAA1A5/H38tGrZIYQFhuuunu9xu5XA++/Lgl/ry4Jfq0rCLXrnklbquTo06kXNCD/36kFqHtNYnQz85q2vV2/BXftd7i8Vx7K2Nbc8SScopynFZrnwvWMOAhlWuR2Fpof72298U1SDK5SbzVTEtdprSCtIU7Btsn6B7pumXTFe4f7jWJ63XtNhpFY55+znL/5saRvU/6QEAAIB3dY/sru+u+07J+cm6+turK9364XyTmJuoe9beo+6NumvFdSuq1Ot3vjpw+oCGLh+qYL9grb5htVqHtD6r69Xb8Fd+fHJhieuervKrW5bfKuFM5Y+VP6cyr297XftP79eTvZ5UdlG2EnMTK3xlFWbZyybnJdt/nl6QXuE63x37TpJ13p+rTR1D/EJ0abNLJZWNCXZWZ288Z/keQndzCAEAAFD7BjQfoC2jt6hDeAfFJsfWdXW8qkWDFlpzwxr9fsvvHm2ddj76KeEnXdXqKm0atUkXRlx41tert3P+Ggc1tn/vblhi78a9ZZFFhowKK2KeaV9G2bHKxk6Xty7Juj/K5A2TNXnDZLdl+ywp2y9vWNQwrflL2Z4hts0jo0Lcr+xj24zyZO5JFZYW2oe8evs5yw8rdRVGAQAAUHeiGkRp4bCFKjVK67oqXjegeeULvNQH93a5V/dfeL/Xrldvw1/5Xe/ddXU3C26mgc0Hal3SOq1PXC/1cl7OFuL6NennUXfrS/1e0iPdHnF5fPmR5Xpv93uSpHlD59mD1JmBKjIwUqkFqTqefdzhGuWl5FlDYpBvUIW5jt5+zqTcJPv3HcM7uiwHAACAuuVjqbeD/eo9b7929Tf8hXdUiF+IcopzdCTriNuyD3d7WOuS1mnlsZVKyU9xCF4ZhRn69ui3kqSJ3SZ6VI8+Tfq4PR5/Ot7+/ZCoIS4D1+CWgxVzOEZ7M/cqMTdRLRq0cCiTVZSl30/9LklOV23y5nMeybb+m7YPbe/RHEgAAAAAdaPefgzg7+OvK1teKUnalb7LbdlxHcfpypZXqqC0QI9teMzh+NSNU5VbnKvLml2muzrf5fQaz296XpY5FjX5tGaGQD7Z+0n5yEf5Jfma+vvUCgva2MtsfNI+xPXJ3k86HPfGc9rsTNspybppJQAAAIBzX73t+ZOkv3b4q1YcW6G1CWvdlrPIosXDF2v4t8M1b/88pean6u7Od8tisWjB/gVadmSZujfqrqUjlrrsek3OT5Ykp5tXnmlX+i7FpVg3pdx0apP95zGHYtQosJEk6aZ2N1VYueiyZpfp4yEfa8KvEzR//3wdyz6muzrfpagG1n3+5u+frx8TfpS/j7/eGPCGRrQeUSPPKUnFpcX6NfFXSdLYjme33wkAAACA2mEx6vE6/QUlBWr/eXsl5iVqy6gtlS7UUlhaqFk7Z+nz+M+1L3OfDMNQp4adNLbjWD3a/VEF+Qa5PPfSmEv1R/IfeqHPC3qx34tu7/Pq1lf19z/+7rbMnv+3x+mKPoeyDmn27tn64cQPOnD6gLKLshXiF6LosGgNiRqiB7s+WOlKQGfznJK07PAyjfx+pHpG9tS2MdvclgUAAABwbqjX4U+ybnlw+4+365b2t2jJNUtq5B670nepx5c95O/jr4PjDqpVSKsauc+5oNQo1WVLL1Nscqx+vulnDWoxqK6rBAAAAKAK6u2cP5vbOt6m+7rcp5jDMfp478dev352UbbuXXuvDBl65/J36nXwk6SXt7ysTcmbNK3vNIIfAAAAcB6p13P+bN4f9L4MGRr/y3gVlxbrgYse8Nq1X4h9QbHJsZref7rGXzTea9c9F7285WW9uPlFPXPxM5rWd1pdVwcAAACAB+r9sM/y5u+fr68OfqWlI5Z67Zp5xXmKS41zurVCfXPl11fqqd5P6fq219d1VQAAAAB4yFThT7LOWWOjy+rh3w4AAAA4f5ku/AEAAACAGdGNAwAAAAAmQPgDAAAAABMg/AEAAACACRD+AAAAAMAECH8AAAAAYAKEPwAAAAAwAcIfAAAAAJgA4Q8AAAAATIDwBwAAAAAmQPgDAAAAABMg/AEAAACACRD+AAAAAMAECH8AAAAAYAKEPwAAAAAwAcIfAAAAAJgA4Q8AAAAATIDwBwAAAAAmQPgDAAAAABMg/AEAAACACRD+AAAAAMAE/j9hweaOgPksPQAAAABJRU5ErkJggg==;" parent="1" vertex="1">
          <mxGeometry x="-410" y="165" width="387.1" height="282" as="geometry" />
        </mxCell>
        <mxCell id="unjOA-P-tR-D2smZfHzm-9" value="" style="endArrow=classic;html=1;entryX=0;entryY=0.5;entryDx=0;entryDy=0;strokeWidth=3;" parent="1" target="unjOA-P-tR-D2smZfHzm-7" edge="1">
          <mxGeometry width="50" height="50" relative="1" as="geometry">
            <mxPoint x="-480" y="625" as="sourcePoint" />
            <mxPoint x="-440" y="575" as="targetPoint" />
            <Array as="points">
              <mxPoint x="-480" y="306" />
            </Array>
          </mxGeometry>
        </mxCell>
        <mxCell id="unjOA-P-tR-D2smZfHzm-10" value="blur" style="rounded=0;whiteSpace=wrap;html=1;" parent="1" vertex="1">
          <mxGeometry x="37.1" y="595" width="120" height="60" as="geometry" />
        </mxCell>
        <mxCell id="unjOA-P-tR-D2smZfHzm-11" style="edgeStyle=orthogonalEdgeStyle;rounded=0;orthogonalLoop=1;jettySize=auto;html=1;exitX=1;exitY=0.5;exitDx=0;exitDy=0;strokeWidth=3;entryX=0;entryY=0.5;entryDx=0;entryDy=0;" parent="1" source="unjOA-P-tR-D2smZfHzm-6" target="unjOA-P-tR-D2smZfHzm-10" edge="1">
          <mxGeometry relative="1" as="geometry">
            <mxPoint x="-273" y="624.5" as="sourcePoint" />
            <mxPoint x="-173" y="625" as="targetPoint" />
            <Array as="points" />
          </mxGeometry>
        </mxCell>
        <mxCell id="unjOA-P-tR-D2smZfHzm-14" value="&lt;font style=&quot;font-size: 20px&quot;&gt;cvtColor(Gray)&lt;/font&gt;" style="text;html=1;strokeColor=none;fillColor=none;align=center;verticalAlign=middle;whiteSpace=wrap;rounded=0;dashed=1;" parent="1" vertex="1">
          <mxGeometry x="-450" y="635" width="40" height="20" as="geometry" />
        </mxCell>
        <mxCell id="unjOA-P-tR-D2smZfHzm-16" value="&lt;font style=&quot;font-size: 20px&quot;&gt;GaussianBlur&lt;/font&gt;" style="text;html=1;strokeColor=none;fillColor=none;align=center;verticalAlign=middle;whiteSpace=wrap;rounded=0;dashed=1;" parent="1" vertex="1">
          <mxGeometry x="-140" y="635" width="40" height="20" as="geometry" />
        </mxCell>
        <mxCell id="IvMAb4VfyYXmAn-SEdyG-1" style="edgeStyle=orthogonalEdgeStyle;rounded=0;orthogonalLoop=1;jettySize=auto;html=1;exitX=1;exitY=0.5;exitDx=0;exitDy=0;strokeWidth=3;" parent="1" source="unjOA-P-tR-D2smZfHzm-20" target="9JEP8ao779F75kNNE31w-2" edge="1">
          <mxGeometry relative="1" as="geometry" />
        </mxCell>
        <mxCell id="unjOA-P-tR-D2smZfHzm-20" value="canny_img" style="rounded=0;whiteSpace=wrap;html=1;" parent="1" vertex="1">
          <mxGeometry x="428.25" y="595" width="120" height="60" as="geometry" />
        </mxCell>
        <mxCell id="unjOA-P-tR-D2smZfHzm-21" style="edgeStyle=orthogonalEdgeStyle;rounded=0;orthogonalLoop=1;jettySize=auto;html=1;exitX=1;exitY=0.5;exitDx=0;exitDy=0;strokeWidth=3;entryX=0;entryY=0.5;entryDx=0;entryDy=0;startArrow=none;" parent="1" source="unjOA-P-tR-D2smZfHzm-10" target="unjOA-P-tR-D2smZfHzm-20" edge="1">
          <mxGeometry relative="1" as="geometry">
            <mxPoint x="-250" y="545" as="sourcePoint" />
            <mxPoint x="-62.90000000000009" y="545" as="targetPoint" />
            <Array as="points">
              <mxPoint x="407" y="625" />
              <mxPoint x="407" y="625" />
            </Array>
          </mxGeometry>
        </mxCell>
        <mxCell id="unjOA-P-tR-D2smZfHzm-22" value="&lt;span style=&quot;font-size: 20px&quot;&gt;Canny&lt;/span&gt;" style="text;html=1;strokeColor=none;fillColor=none;align=center;verticalAlign=middle;whiteSpace=wrap;rounded=0;dashed=1;" parent="1" vertex="1">
          <mxGeometry x="261" y="629" width="40" height="20" as="geometry" />
        </mxCell>
        <mxCell id="dVULc7ITpSQJmRkZ5KJv-4" style="edgeStyle=orthogonalEdgeStyle;rounded=0;orthogonalLoop=1;jettySize=auto;html=1;strokeWidth=3;" edge="1" parent="1" source="9JEP8ao779F75kNNE31w-2" target="dVULc7ITpSQJmRkZ5KJv-3">
          <mxGeometry relative="1" as="geometry" />
        </mxCell>
        <mxCell id="9JEP8ao779F75kNNE31w-2" value="canny_img" style="rounded=0;whiteSpace=wrap;html=1;" parent="1" vertex="1">
          <mxGeometry x="800" y="595" width="120" height="60" as="geometry" />
        </mxCell>
        <mxCell id="9JEP8ao779F75kNNE31w-3" value="&lt;span style=&quot;font-size: 20px&quot;&gt;HoughLinesP&lt;/span&gt;" style="text;html=1;strokeColor=none;fillColor=none;align=center;verticalAlign=middle;whiteSpace=wrap;rounded=0;dashed=1;" parent="1" vertex="1">
          <mxGeometry x="670" y="580" width="40" height="20" as="geometry" />
        </mxCell>
        <mxCell id="9JEP8ao779F75kNNE31w-4" value="" style="shape=image;verticalLabelPosition=bottom;labelBackgroundColor=#ffffff;verticalAlign=top;aspect=fixed;imageAspect=0;image=https://1.bp.blogspot.com/-KU3YUO8aImk/Uj8cDkwpcoI/AAAAAAAAAfY/uJ0Qy6fPIDImlk0lueZ4YVO3-6BE4rUHQCPcBGAYYCw/s1600/Gaussian%2BKernel.png;" parent="1" vertex="1">
          <mxGeometry x="-219.01" y="470" width="169.92" height="140" as="geometry" />
        </mxCell>
        <mxCell id="9JEP8ao779F75kNNE31w-13" value="&lt;span style=&quot;color: rgb(34 , 34 , 34) ; font-family: &amp;#34;arial&amp;#34; , &amp;#34;tahoma&amp;#34; , &amp;#34;helvetica&amp;#34; , &amp;#34;freesans&amp;#34; , sans-serif ; background-color: rgb(255 , 255 , 255)&quot;&gt;&lt;font style=&quot;font-size: 16px&quot;&gt;5 x 5 Gaussian kernel&lt;/font&gt;&lt;/span&gt;" style="text;html=1;strokeColor=none;fillColor=none;align=center;verticalAlign=middle;whiteSpace=wrap;rounded=0;dashed=1;" parent="1" vertex="1">
          <mxGeometry x="-219.01" y="600" width="180" height="20" as="geometry" />
        </mxCell>
        <mxCell id="dVULc7ITpSQJmRkZ5KJv-3" value="img" style="rounded=0;whiteSpace=wrap;html=1;" vertex="1" parent="1">
          <mxGeometry x="1181" y="595" width="120" height="60" as="geometry" />
        </mxCell>
        <mxCell id="dVULc7ITpSQJmRkZ5KJv-5" value="" style="endArrow=classic;html=1;exitX=0.5;exitY=0;exitDx=0;exitDy=0;strokeWidth=3;" edge="1" parent="1" source="9JEP8ao779F75kNNE31w-2">
          <mxGeometry width="50" height="50" relative="1" as="geometry">
            <mxPoint x="1030" y="620" as="sourcePoint" />
            <mxPoint x="1181" y="500" as="targetPoint" />
            <Array as="points">
              <mxPoint x="860" y="500" />
              <mxPoint x="1030" y="500" />
            </Array>
          </mxGeometry>
        </mxCell>
        <mxCell id="dVULc7ITpSQJmRkZ5KJv-6" value="Điều khiển tốc độ bánh xe" style="rounded=0;whiteSpace=wrap;html=1;" vertex="1" parent="1">
          <mxGeometry x="1181" y="475" width="120" height="60" as="geometry" />
        </mxCell>
        <mxCell id="dVULc7ITpSQJmRkZ5KJv-7" value="&lt;span style=&quot;font-size: 20px&quot;&gt;Tìm ra vạch kẻ đường&lt;/span&gt;" style="text;html=1;strokeColor=none;fillColor=none;align=center;verticalAlign=middle;whiteSpace=wrap;rounded=0;dashed=1;" vertex="1" parent="1">
          <mxGeometry x="991.75" y="575" width="118.25" height="20" as="geometry" />
        </mxCell>
        <mxCell id="dVULc7ITpSQJmRkZ5KJv-8" value="&lt;span style=&quot;font-size: 20px&quot;&gt;Tính toán độ ngiêng, &lt;br&gt;độ lệch so với làn đường&lt;/span&gt;" style="text;html=1;strokeColor=none;fillColor=none;align=center;verticalAlign=middle;whiteSpace=wrap;rounded=0;dashed=1;" vertex="1" parent="1">
          <mxGeometry x="880" y="450" width="240" height="20" as="geometry" />
        </mxCell>
        <mxCell id="dVULc7ITpSQJmRkZ5KJv-9" value="&lt;span style=&quot;font-size: 20px&quot;&gt;minThreadhold,maxThreadhold 1:3&lt;/span&gt;" style="text;html=1;strokeColor=none;fillColor=none;align=center;verticalAlign=middle;whiteSpace=wrap;rounded=0;dashed=1;" vertex="1" parent="1">
          <mxGeometry x="113" y="547" width="372.9" height="20" as="geometry" />
        </mxCell>
      </root>
    </mxGraphModel>
  </diagram>
</mxfile>
